<svg xmlns="http://www.w3.org/2000/svg" width="112" height="128" fill="none" viewBox="0 0 112 128">
  <g clip-path="url(#a)">
    <path fill="#fff" d="M106.345.324H24.838A4.443 4.443 0 0 0 20.4 4.76v81.508a4.443 4.443 0 0 0 4.437 4.437h81.475c2.461 0 4.436-2.008 4.469-4.437V4.76a4.443 4.443 0 0 0-4.437-4.436Z"/>
    <path fill="#E6E6E6" d="M106.313 91.028H24.838a4.768 4.768 0 0 1-4.76-4.76V4.76A4.768 4.768 0 0 1 24.837 0h81.507a4.769 4.769 0 0 1 4.761 4.76v81.508c-.033 2.623-2.17 4.76-4.793 4.76ZM24.838.648a4.118 4.118 0 0 0-4.113 4.112v81.508a4.118 4.118 0 0 0 4.113 4.113h81.475c2.267 0 4.113-1.846 4.145-4.113V4.76a4.119 4.119 0 0 0-4.113-4.112H24.838Z"/>
    <path fill="#000" d="M13.99 57.35c.064-1.1.161-2.234.258-3.335.13-1.101.26-2.202.454-3.271s.42-2.137.68-3.173c.291-1.004.615-2.008 1.036-2.818.033-.097.065-.227.097-.356.195-1.036-.453-2.04-1.49-2.234l-.097-.033c-.129-.032-.194-.032-.29-.032-.098 0-.163-.033-.26-.033-.162 0-.324-.032-.486-.032-.324 0-.647.032-.971.032-.648.065-1.263.13-1.878.227a32.565 32.565 0 0 0-3.627.777c-1.166.356-2.332.745-3.433 1.23-.55.227-1.1.519-1.651.746-.55.259-1.07.582-1.587.842-.162.097-.26.259-.194.453.064.227.259.356.485.291h.033c.583-.13 1.133-.291 1.684-.42.582-.13 1.133-.26 1.683-.324 1.134-.227 2.267-.324 3.4-.389.713-.032 1.458-.032 2.17-.032a33.563 33.563 0 0 0-3.853 5.57c-1.457 2.622-2.59 5.375-3.498 8.192A57.598 57.598 0 0 0 0 76.586c0 5.829.874 11.69 2.688 17.227 1.846 5.538 4.63 10.719 8.29 15.22a.502.502 0 0 0 .68.097.477.477 0 0 0 .097-.68 46.52 46.52 0 0 1-7.416-15.09c-1.522-5.408-2.105-11.075-1.878-16.645.227-5.602 1.295-11.14 3.206-16.353.971-2.59 2.137-5.117 3.562-7.448.907-1.49 1.91-2.882 3.044-4.145 0 .647 0 1.263.033 1.91.064 1.166.129 2.3.259 3.433s.259 2.267.453 3.4a.55.55 0 0 0 .486.453c.226-.097.485-.323.485-.615Z"/>
    <path fill="#fff" d="M33.842 103.278c.26-.199.533-.447.817-.745.285-.299.566-.634.844-1.005.278-.372.541-.77.791-1.195.25-.425.466-.852.646-1.28.18-.428.317-.852.41-1.272.093-.42.123-.82.09-1.197a2.803 2.803 0 0 0-.13-.683 1.073 1.073 0 0 0-.221-.39.62.62 0 0 0-.287-.177.926.926 0 0 0-.322-.028c-.441.039-.926.27-1.454.69-.529.422-1.075.98-1.64 1.673a24.34 24.34 0 0 0-1.707 2.407 35.603 35.603 0 0 0-1.642 2.917 45.197 45.197 0 0 0-1.452 3.177 33.514 33.514 0 0 0-1.138 3.199 24.007 24.007 0 0 0-.697 2.986c-.154.945-.199 1.785-.134 2.52.024.276.064.502.121.678.058.175.13.313.217.411a.57.57 0 0 0 .315.188c.123.027.263.033.419.019.267-.023.572-.163.915-.42a8.984 8.984 0 0 0 1.082-.977c.378-.395.757-.831 1.136-1.309.38-.478.735-.947 1.066-1.406.33-.46.626-.884.889-1.273.262-.389.462-.696.6-.922 0 .01.122.096.363.261.242.164.525.361.851.592.326.231.652.464.979.7.326.235.575.429.745.581-.199.267-.451.609-.758 1.025-.306.416-.654.856-1.044 1.321a31.3 31.3 0 0 1-1.26 1.41c-.45.475-.917.907-1.401 1.297-.485.39-.98.716-1.485.977a4.028 4.028 0 0 1-1.503.459c-.358.031-.75-.044-1.173-.224a6.541 6.541 0 0 1-1.273-.737 9.288 9.288 0 0 1-1.204-1.048 8.727 8.727 0 0 1-.964-1.173c-.32-.491-.523-.95-.607-1.379a10.333 10.333 0 0 1-.16-1.028c-.061-.708-.03-1.517.094-2.426.124-.91.332-1.866.625-2.869a27.68 27.68 0 0 1 1.106-3.078c.446-1.049.952-2.07 1.518-3.065a24.746 24.746 0 0 1 1.878-2.833 16.898 16.898 0 0 1 2.197-2.374 11.537 11.537 0 0 1 2.452-1.68 7.248 7.248 0 0 1 2.65-.767c.257-.023.534.02.83.129.297.108.593.258.888.45.294.192.583.42.865.682.283.262.534.534.753.816.22.282.4.568.54.856.141.29.223.558.245.806.048.552-.01 1.17-.172 1.856a11.709 11.709 0 0 1-.72 2.092 14.092 14.092 0 0 1-1.172 2.097 13.214 13.214 0 0 1-1.51 1.869l-2.707-2.181Zm6.582 10.417c.024.276.137.405.34.387.21-.018.476-.211.796-.577.32-.366.646-.823.978-1.371a2.226 2.226 0 0 1-.057-.266 3.555 3.555 0 0 1-.026-.213 4.14 4.14 0 0 1 .005-.66 3.01 3.01 0 0 1 .234-.89c.09-.257.201-.513.337-.766.11-.222.246-.464.409-.723a5.73 5.73 0 0 1 .547-.736l.075-.09a34.887 34.887 0 0 1 .91.956c.17.184.319.354.448.509.13.156.211.265.244.327.035.395-.002.797-.11 1.204a6.283 6.283 0 0 1-.47 1.223 3.904 3.904 0 0 0 1.502-.555c.452-.286.911-.726 1.378-1.323.09.075.208.179.354.309.145.131.264.244.356.337a8.174 8.174 0 0 1-1.05 1.107 5.782 5.782 0 0 1-1.062.732 5.343 5.343 0 0 1-1.108.437 6.8 6.8 0 0 1-1.177.208 8.613 8.613 0 0 1-1.961 1.811 5.831 5.831 0 0 1-1.07.566 3.648 3.648 0 0 1-1.033.257 1.747 1.747 0 0 1-.877-.173 3.783 3.783 0 0 1-1.515-1.271c-.18-.262-.28-.499-.298-.711a7.89 7.89 0 0 1 .1-2.107 6.677 6.677 0 0 1 .714-2.015 6.383 6.383 0 0 1 1.391-1.727c.58-.514 1.288-.928 2.122-1.242a.395.395 0 0 1 .141-.054 1.43 1.43 0 0 1 .172-.029.74.74 0 0 1 .42.11 2.988 2.988 0 0 1 .769.613c.092.108.14.18.144.217-.015.048-.079.111-.192.191-.114.079-.264.21-.452.393a6.894 6.894 0 0 0-.655.773c-.25.333-.517.766-.804 1.301-.431.788-.708 1.491-.83 2.108-.122.618-.168 1.092-.14 1.423Zm11.042-6.261a91.987 91.987 0 0 0-.502 1.892c.522-.712.974-1.296 1.355-1.751.382-.455.707-.815.976-1.079.269-.265.489-.448.66-.551.172-.103.309-.159.41-.168.12-.011.304.033.553.132a5.473 5.473 0 0 1 1.445.86c.195.169.299.322.31.46a.49.49 0 0 1-.004.104 2.823 2.823 0 0 1-.027.162 20.61 20.61 0 0 1-.212.839c-.088.323-.181.657-.28 1.004l-.299 1.041-.262.975c-.175.65-.235.914-.18.794.054-.121.036.043-.055.491.005.055.035.08.09.075.101-.008.248-.081.44-.219.192-.137.41-.313.655-.53.245-.216.5-.451.765-.706.265-.255.519-.506.761-.754l.657-.676c.195-.202.344-.354.446-.456.1.075.21.172.331.291.122.119.238.229.349.33-.184.22-.416.488-.694.805-.278.316-.58.641-.908.975-.328.335-.669.67-1.024 1.007-.355.337-.701.641-1.039.911a7.822 7.822 0 0 1-.956.667c-.3.175-.555.271-.767.29-.138.012-.317-.021-.537-.099a3.644 3.644 0 0 1-.645-.305 2.484 2.484 0 0 1-.545-.432c-.153-.162-.237-.326-.251-.492.05-.384.125-.822.225-1.312a52.27 52.27 0 0 1 1.12-4.448l-.026.03c-.156.227-.383.527-.679.9-.296.374-.627.847-.994 1.421a21.632 21.632 0 0 0-1.14 2.06c-.394.798-.766 1.737-1.116 2.814a2.322 2.322 0 0 1-.125.317c-.04.078-.124.122-.252.133a1.336 1.336 0 0 1-.543-.084 3.79 3.79 0 0 1-.637-.292 7.81 7.81 0 0 1-1.267-.897 3.795 3.795 0 0 1 .035-.475c.028-.262.071-.593.129-.991a43.315 43.315 0 0 1 .559-2.989 46.57 46.57 0 0 1 .424-1.739 24.22 24.22 0 0 1 .523-1.721 22.4 22.4 0 0 1 1.35.563c.496.226.962.5 1.398.823Zm9.449 6.65c-.157.014-.367-.039-.633-.16a4.51 4.51 0 0 1-.783-.459 4.804 4.804 0 0 1-.677-.587c-.194-.206-.298-.387-.312-.543-.024-.276.014-.719.113-1.33.1-.611.24-1.311.42-2.101.182-.789.393-1.634.634-2.536.24-.901.485-1.784.734-2.649l-1.945.17-.014.002c-.009 0-.014-.008-.016-.027a.743.743 0 0 1 .041-.247c.032-.109.073-.224.123-.344.05-.12.11-.232.179-.335a.569.569 0 0 1 .211-.206l1.786-.24a69.98 69.98 0 0 1 .586-1.795 41.3 41.3 0 0 1 .51-1.414l.115-.337c.041-.119.105-.24.191-.364.087-.123.205-.254.355-.392a3.55 3.55 0 0 1 .622-.437c.193-.118.43-.25.709-.395.279-.145.554-.28.826-.406.271-.126.52-.233.743-.322.224-.09.386-.138.487-.147.092-.008.14.006.143.043l.002.028a.23.23 0 0 1-.021.071 9.08 9.08 0 0 0-.25.627 90.536 90.536 0 0 0-1.022 2.855c-.21.616-.425 1.267-.643 1.953l3.3-.414c.091-.008.124.045.096.158a1.615 1.615 0 0 1-.173.405 5.69 5.69 0 0 1-.618.874.298.298 0 0 1-.105.064.636.636 0 0 1-.205.046l-2.73.239a70.214 70.214 0 0 0-.74 2.511 60.276 60.276 0 0 0-.61 2.402 24.508 24.508 0 0 0-.395 2.077c-.088.629-.115 1.141-.08 1.536.004.055.034.08.09.075.1-.008.247-.079.44-.212.191-.132.406-.302.643-.508.236-.206.488-.432.753-.677.266-.246.518-.488.757-.727.238-.238.453-.456.644-.653.192-.198.338-.347.44-.449.09.076.199.173.325.291.126.119.245.229.355.331-.184.219-.416.488-.694.804-.278.316-.58.641-.908.976-.327.334-.669.67-1.024 1.006-.355.337-.703.641-1.045.912a8.368 8.368 0 0 1-.964.668c-.3.174-.555.271-.766.289Zm12.709-3.099c.005.055.034.08.09.076.082-.008.215-.08.398-.216a9.6 9.6 0 0 0 .622-.513c.232-.206.478-.436.739-.69a47.101 47.101 0 0 0 1.39-1.414c.192-.202.338-.359.44-.469.09.075.202.176.338.303l.37.343c-.202.222-.445.491-.728.808a42.979 42.979 0 0 1-1.929 2.017 14.4 14.4 0 0 1-1.031.917 8.12 8.12 0 0 1-.97.675c-.308.18-.582.28-.82.301a1.762 1.762 0 0 1-.554-.048 2.098 2.098 0 0 1-.568-.222 1.667 1.667 0 0 1-.45-.37.894.894 0 0 1-.211-.51 6.236 6.236 0 0 0-.03-.268 2.874 2.874 0 0 1-.016-.416c.004-.172.022-.382.056-.63.034-.249.09-.557.17-.925a13.77 13.77 0 0 1-.982 1.1 16.344 16.344 0 0 1-2.486 2.073 7.6 7.6 0 0 1-1.212.683.34.34 0 0 1-.108.037l-.083.007c-.092.008-.218-.027-.378-.106a2.247 2.247 0 0 1-.48-.326 2.38 2.38 0 0 1-.424-.484 1.201 1.201 0 0 1-.21-.565 5.571 5.571 0 0 1 .035-.559c.028-.318.124-.727.289-1.228.164-.501.422-1.07.774-1.707.352-.638.85-1.305 1.493-2 .33-.353.69-.691 1.079-1.012a14.97 14.97 0 0 1 1.136-.836 7.165 7.165 0 0 1 1.369-.717.091.091 0 0 0 .047-.018c.013-.011.034-.008.063.008.113.027.25.073.408.138.159.065.317.135.477.209.16.074.3.149.423.227.122.077.204.142.246.194.01.017.012.031.004.041l-.025.03a9.612 9.612 0 0 0-1.108.84c-.344.304-.648.588-.912.852-.307.314-.59.621-.85.922-.614.72-1.028 1.333-1.244 1.839-.215.505-.313.863-.295 1.075.014.156.085.229.214.217.129-.011.287-.078.476-.201.188-.123.398-.285.631-.486.233-.201.488-.437.765-.706.278-.27.566-.553.864-.847.265-.255.52-.528.763-.818.21-.24.427-.514.65-.821a5.97 5.97 0 0 0 .559-.924c-.001-.009.003-.019.011-.029.008-.01.022-.011.041-.004.108.065.234.177.377.336.144.159.28.334.408.527.128.193.24.38.334.561.094.182.146.323.155.424a9.185 9.185 0 0 0-.386 1.223 10.59 10.59 0 0 0-.181.953 4.839 4.839 0 0 0-.033 1.129Zm5.427 1.513c-.157.013-.367-.04-.633-.161a4.513 4.513 0 0 1-.783-.459 4.803 4.803 0 0 1-.677-.587c-.194-.206-.298-.386-.312-.543-.024-.276.014-.719.113-1.33.1-.611.24-1.311.421-2.1a72.6 72.6 0 0 1 .633-2.536c.24-.902.485-1.785.734-2.65l-1.945.171-.013.001c-.01.001-.015-.008-.017-.027a.732.732 0 0 1 .041-.246 3.37 3.37 0 0 1 .123-.345c.05-.12.11-.232.18-.335a.578.578 0 0 1 .21-.206l1.786-.24a71.57 71.57 0 0 1 .587-1.795c.188-.55.357-1.02.508-1.413a31.7 31.7 0 0 0 .117-.337c.04-.12.104-.241.19-.364a2.54 2.54 0 0 1 .355-.393c.15-.138.357-.283.622-.436.193-.12.43-.251.709-.396.28-.145.554-.28.826-.406.272-.125.52-.233.743-.322.224-.089.386-.138.488-.147.092-.008.14.007.142.043l.003.028c0 .01-.007.033-.022.071-.047.097-.13.306-.25.627a89.933 89.933 0 0 0-1.022 2.855 97.22 97.22 0 0 0-.643 1.953l3.3-.414c.091-.008.124.045.097.159a1.626 1.626 0 0 1-.173.404 5.568 5.568 0 0 1-.619.874.31.31 0 0 1-.105.065.665.665 0 0 1-.205.045l-2.73.239a70.422 70.422 0 0 0-.74 2.511 60.715 60.715 0 0 0-.61 2.402 24.548 24.548 0 0 0-.395 2.077c-.088.629-.115 1.141-.08 1.536.004.055.034.081.09.076.1-.009.247-.08.44-.213.192-.132.406-.301.643-.508a32.713 32.713 0 0 0 1.51-1.403c.239-.239.453-.457.645-.654.19-.198.338-.347.44-.449.09.076.198.173.324.292l.356.33c-.185.22-.416.488-.694.804a25.07 25.07 0 0 1-.909.976c-.327.334-.668.67-1.023 1.007-.355.336-.704.64-1.046.911a8.244 8.244 0 0 1-.963.668c-.3.175-.556.271-.767.29Zm6.596-2.759c.024.275.137.404.34.387.211-.019.477-.211.797-.577.32-.366.646-.823.978-1.371a2.335 2.335 0 0 1-.084-.479 4.165 4.165 0 0 1 .005-.661c.02-.256.097-.553.235-.889.088-.258.2-.513.336-.766a8.23 8.23 0 0 1 .409-.724c.163-.26.345-.505.547-.736l.076-.09a36.334 36.334 0 0 1 .91.956c.17.185.318.354.448.51.13.155.21.264.244.326.034.395-.002.797-.11 1.205a6.274 6.274 0 0 1-.47 1.222 3.904 3.904 0 0 0 1.5-.555c.453-.285.912-.726 1.38-1.323.09.076.207.179.353.31s.264.243.356.337c-.35.438-.7.807-1.05 1.106-.349.3-.703.544-1.061.732a5.404 5.404 0 0 1-1.109.438 6.7 6.7 0 0 1-1.177.207 8.612 8.612 0 0 1-1.96 1.812 5.96 5.96 0 0 1-1.07.566 3.682 3.682 0 0 1-1.034.257 1.746 1.746 0 0 1-.876-.174 3.573 3.573 0 0 1-.854-.543 3.791 3.791 0 0 1-.661-.728c-.18-.262-.28-.499-.299-.71a7.897 7.897 0 0 1 .1-2.107 6.668 6.668 0 0 1 .714-2.015 6.368 6.368 0 0 1 1.392-1.727c.58-.514 1.287-.928 2.121-1.242a.36.36 0 0 1 .142-.054c.068-.015.125-.025.17-.029a.737.737 0 0 1 .42.109c.151.084.294.181.429.289.134.109.248.217.34.325.094.107.142.18.145.216-.014.048-.078.112-.192.191a3.96 3.96 0 0 0-.452.394 6.794 6.794 0 0 0-.655.773 10.36 10.36 0 0 0-.803 1.3c-.432.788-.708 1.491-.83 2.109-.123.617-.169 1.092-.14 1.423Z"/>
    <g clip-path="url(#b)">
      <path fill="#fff" d="M108.807 1.975H22.02v86.787h86.787V1.975Z"/>
      <g clip-path="url(#c)">
        <path fill="#000" d="M55.103 13.431a.59.59 0 0 0 .59-.59v.59h-.59Z"/>
      </g>
      <g clip-path="url(#d)">
        <path fill="#000" d="M58.47 12.841v-1.597a.59.59 0 0 0-.59-.59h-1.597a.59.59 0 0 0-.59.59v2.187h2.778v-.59Z"/>
      </g>
      <g clip-path="url(#e)">
        <path fill="#000" d="M68.989 13.431a.59.59 0 0 0 .59-.59v.59h-.59Z"/>
      </g>
      <g clip-path="url(#f)">
        <path fill="#000" d="M72.356 12.841v-1.597a.59.59 0 0 0-.59-.59H70.17a.59.59 0 0 0-.59.59v2.187h2.777v-.59Z"/>
      </g>
      <g clip-path="url(#g)">
        <path fill="#000" d="M77.32 10.654h-1.596a.59.59 0 0 0-.59.59v1.597c0 .326.264.59.59.59h1.597a.59.59 0 0 0 .59-.59v-1.597a.59.59 0 0 0-.59-.59Z"/>
      </g>
      <g clip-path="url(#h)">
        <path fill="#000" d="M55.103 13.431h-1.597a.59.59 0 0 0-.59.59v1.597a.59.59 0 0 0 .59.59h2.187v-2.777h-.59Z"/>
      </g>
      <g clip-path="url(#i)">
        <path fill="#000" d="M58.47 13.431h-2.777v2.777h2.778v-2.777Z"/>
      </g>
      <g clip-path="url(#j)">
        <path fill="#000" d="M60.658 16.208a.59.59 0 0 0 .59-.59v.59h-.59Z"/>
      </g>
      <g clip-path="url(#k)">
        <path fill="#000" d="M59.06 16.208a.59.59 0 0 1-.59-.59v.59h.59Z"/>
      </g>
      <g clip-path="url(#l)">
        <path fill="#000" d="M61.838 13.431a.59.59 0 0 0-.59.59v2.187h2.777v-2.777h-2.187Z"/>
      </g>
      <g clip-path="url(#m)">
        <path fill="#000" d="M66.802 13.431h-2.777v2.777h2.777v-2.777Z"/>
      </g>
      <g clip-path="url(#n)">
        <path fill="#000" d="M69.58 13.431h-2.778v2.777h2.777v-2.777Z"/>
      </g>
      <g clip-path="url(#o)">
        <path fill="#000" d="M72.356 15.618a.59.59 0 0 1-.59.59H69.58v-2.777h2.777v2.187Z"/>
      </g>
      <g clip-path="url(#p)">
        <path fill="#000" d="M55.693 16.798v-.59h-.59a.59.59 0 0 1 .59.59Z"/>
      </g>
      <g clip-path="url(#q)">
        <path fill="#000" d="M55.103 18.985a.59.59 0 0 0 .59-.59v.59h-.59Z"/>
      </g>
      <g clip-path="url(#r)">
        <path fill="#000" d="M58.47 16.208h-2.777v2.777h2.778v-2.777Z"/>
      </g>
      <g clip-path="url(#s)">
        <path fill="#000" d="M61.248 16.208H58.47v2.777h2.777v-2.777Z"/>
      </g>
      <g clip-path="url(#t)">
        <path fill="#000" d="M64.025 16.208h-2.777v2.777h2.777v-2.777Z"/>
      </g>
      <g clip-path="url(#u)">
        <path fill="#000" d="M64.615 16.208h-.59v.59a.59.59 0 0 1 .59-.59Z"/>
      </g>
      <g clip-path="url(#v)">
        <path fill="#000" d="M55.103 18.985h-1.597a.59.59 0 0 0-.59.59v1.597a.59.59 0 0 0 .59.59h2.187v-2.777h-.59Z"/>
      </g>
      <g clip-path="url(#w)">
        <path fill="#000" d="M58.47 21.172a.59.59 0 0 1-.59.59h-2.187v-2.777h2.778v2.187Z"/>
      </g>
      <g clip-path="url(#x)">
        <path fill="#000" d="M59.06 18.985h-.59v.59a.59.59 0 0 1 .59-.59Z"/>
      </g>
      <g clip-path="url(#y)">
        <path fill="#000" d="M61.248 19.576v-.59h-.59a.59.59 0 0 1 .59.59Z"/>
      </g>
      <g clip-path="url(#z)">
        <path fill="#000" d="M61.248 21.172a.59.59 0 0 0 .59.59h1.597a.59.59 0 0 0 .59-.59v-2.187h-2.777v2.187Z"/>
      </g>
      <g clip-path="url(#A)">
        <path fill="#000" d="M68.989 18.985h-1.597a.59.59 0 0 0-.59.59v1.597c0 .326.264.59.59.59h1.597a.59.59 0 0 0 .59-.59v-1.596a.59.59 0 0 0-.59-.59Z"/>
      </g>
      <g clip-path="url(#B)">
        <path fill="#000" d="M72.947 18.985a.59.59 0 0 0-.59.59v2.188h2.776v-2.778h-2.186Z"/>
      </g>
      <g clip-path="url(#C)">
        <path fill="#000" d="M77.32 18.985a.59.59 0 0 1 .59.59v2.188h-2.776v-2.778h2.187Z"/>
      </g>
      <g clip-path="url(#D)">
        <path fill="#000" d="M61.248 23.95v-1.597a.59.59 0 0 0-.59-.59H59.06a.59.59 0 0 0-.59.59v2.187h2.777v-.59Z"/>
      </g>
      <g clip-path="url(#E)">
        <path fill="#000" d="M66.212 21.763h-1.597a.59.59 0 0 0-.59.59v1.597c0 .326.264.59.59.59h1.597a.59.59 0 0 0 .59-.59v-1.597a.59.59 0 0 0-.59-.59Z"/>
      </g>
      <g clip-path="url(#F)">
        <path fill="#000" d="M71.766 24.54a.59.59 0 0 0 .59-.59v.59h-.59Z"/>
      </g>
      <g clip-path="url(#G)">
        <path fill="#000" d="M75.133 21.763h-2.777v2.777h2.778v-2.777Z"/>
      </g>
      <g clip-path="url(#H)">
        <path fill="#000" d="M77.91 23.95a.59.59 0 0 1-.59.59h-2.186v-2.777h2.777v2.187Z"/>
      </g>
      <g clip-path="url(#I)">
        <path fill="#000" d="M55.693 26.727V25.13a.59.59 0 0 0-.59-.59h-1.597a.59.59 0 0 0-.59.59v2.187h2.777v-.59Z"/>
      </g>
      <g clip-path="url(#J)">
        <path fill="#000" d="M61.248 24.54H58.47v2.777h2.777V24.54Z"/>
      </g>
      <g clip-path="url(#K)">
        <path fill="#000" d="M68.989 24.54h-1.597a.59.59 0 0 0-.59.59v1.597a.59.59 0 0 0 .59.59h2.187V24.54h-.59Z"/>
      </g>
      <g clip-path="url(#L)">
        <path fill="#000" d="M72.356 24.54H69.58v2.777h2.777V24.54Z"/>
      </g>
      <g clip-path="url(#M)">
        <path fill="#000" d="M75.133 26.727a.59.59 0 0 1-.59.59h-2.187V24.54h2.778v2.187Z"/>
      </g>
      <g clip-path="url(#N)">
        <path fill="#000" d="M75.724 24.54h-.59v.59a.59.59 0 0 1 .59-.59Z"/>
      </g>
      <g clip-path="url(#O)">
        <path fill="#000" d="M52.916 29.504a.59.59 0 0 0 .59.59h1.597a.59.59 0 0 0 .59-.59v-2.187h-2.777v2.187Z"/>
      </g>
      <g clip-path="url(#P)">
        <path fill="#000" d="M58.47 29.504a.59.59 0 0 0 .59.59h1.598a.59.59 0 0 0 .59-.59v-2.187H58.47v2.187Z"/>
      </g>
      <g clip-path="url(#Q)">
        <path fill="#000" d="M66.802 29.504v-1.597a.59.59 0 0 0-.59-.59h-1.597a.59.59 0 0 0-.59.59v2.187h2.777v-.59Z"/>
      </g>
      <g clip-path="url(#R)">
        <path fill="#000" d="M69.58 27.907v-.59h-.591a.59.59 0 0 1 .59.59Z"/>
      </g>
      <g clip-path="url(#S)">
        <path fill="#000" d="M69.58 29.504a.59.59 0 0 0 .59.59h1.596a.59.59 0 0 0 .59-.59v-2.187H69.58v2.187Z"/>
      </g>
      <g clip-path="url(#T)">
        <path fill="#000" d="M72.947 27.317h-.59v.59a.59.59 0 0 1 .59-.59Z"/>
      </g>
      <g clip-path="url(#U)">
        <path fill="#000" d="M77.91 29.504v-1.597a.59.59 0 0 0-.59-.59h-1.596a.59.59 0 0 0-.59.59v2.187h2.777v-.59Z"/>
      </g>
      <g clip-path="url(#V)">
        <path fill="#000" d="M66.802 30.094h-2.777v2.777h2.777v-2.777Z"/>
      </g>
      <g clip-path="url(#W)">
        <path fill="#000" d="M67.392 32.871a.59.59 0 0 1-.59-.59v.59h.59Z"/>
      </g>
      <g clip-path="url(#X)">
        <path fill="#000" d="M75.133 32.281a.59.59 0 0 0 .59.59h1.598a.59.59 0 0 0 .59-.59v-2.187h-2.778v2.187Z"/>
      </g>
      <g clip-path="url(#Y)">
        <path fill="#000" d="M31.29 32.871a.59.59 0 0 0-.591.59v2.187h2.777v-2.777H31.29Z"/>
      </g>
      <g clip-path="url(#Z)">
        <path fill="#000" d="M36.253 32.871h-2.777v2.777h2.777v-2.777Z"/>
      </g>
      <g clip-path="url(#aa)">
        <path fill="#000" d="M39.03 32.871h-2.777v2.777h2.778v-2.777Z"/>
      </g>
      <g clip-path="url(#ab)">
        <path fill="#000" d="M41.808 32.871H39.03v2.777h2.777v-2.777Z"/>
      </g>
      <g clip-path="url(#ac)">
        <path fill="#000" d="M43.995 32.871a.59.59 0 0 1 .59.59v2.187h-2.777v-2.777h2.187Z"/>
      </g>
      <g clip-path="url(#ad)">
        <path fill="#000" d="M49.549 32.871h-1.597a.59.59 0 0 0-.59.59v1.597a.59.59 0 0 0 .59.59h2.187v-2.777h-.59Z"/>
      </g>
      <g clip-path="url(#ae)">
        <path fill="#000" d="M52.916 32.871H50.14v2.777h2.777v-2.777Z"/>
      </g>
      <g clip-path="url(#af)">
        <path fill="#000" d="M55.693 32.871h-2.777v2.777h2.777v-2.777Z"/>
      </g>
      <g clip-path="url(#ag)">
        <path fill="#000" d="M58.47 32.871h-2.777v2.777h2.778v-2.777Z"/>
      </g>
      <g clip-path="url(#ah)">
        <path fill="#000" d="M59.06 35.648h1.598a.59.59 0 0 0 .59-.59v-1.597a.59.59 0 0 0-.59-.59H58.47v2.777h.59Z"/>
      </g>
      <g clip-path="url(#ai)">
        <path fill="#000" d="M64.025 35.058a.59.59 0 0 0 .59.59h2.187v-2.777h-2.777v2.187Z"/>
      </g>
      <g clip-path="url(#aj)">
        <path fill="#000" d="M69.58 32.871h-2.778v2.777h2.777v-2.777Z"/>
      </g>
      <g clip-path="url(#ak)">
        <path fill="#000" d="M72.356 32.871H69.58v2.777h2.777v-2.777Z"/>
      </g>
      <g clip-path="url(#al)">
        <path fill="#000" d="M74.543 32.871a.59.59 0 0 1 .59.59v2.187h-2.777v-2.777h2.187Z"/>
      </g>
      <g clip-path="url(#am)">
        <path fill="#000" d="M77.32 35.648a.59.59 0 0 0 .59-.59v.59h-.59Z"/>
      </g>
      <g clip-path="url(#an)">
        <path fill="#000" d="M75.724 35.648a.59.59 0 0 1-.59-.59v.59h.59Z"/>
      </g>
      <g clip-path="url(#ao)">
        <path fill="#000" d="M80.688 35.058v-1.597a.59.59 0 0 0-.59-.59H78.5a.59.59 0 0 0-.59.59v2.187h2.777v-.59Z"/>
      </g>
      <g clip-path="url(#ap)">
        <path fill="#000" d="M86.242 35.058v-1.597a.59.59 0 0 0-.59-.59h-1.597a.59.59 0 0 0-.59.59v2.187h2.777v-.59Z"/>
      </g>
      <g clip-path="url(#aq)">
        <path fill="#000" d="M86.832 35.648a.59.59 0 0 1-.59-.59v.59h.59Z"/>
      </g>
      <g clip-path="url(#ar)">
        <path fill="#000" d="M91.206 32.871H89.61a.59.59 0 0 0-.59.59v1.597c0 .326.264.59.59.59h1.597a.59.59 0 0 0 .59-.59v-1.597a.59.59 0 0 0-.59-.59Z"/>
      </g>
      <g clip-path="url(#as)">
        <path fill="#000" d="M96.76 32.871h-1.596a.59.59 0 0 0-.59.59v1.597c0 .326.264.59.59.59h1.597a.59.59 0 0 0 .59-.59v-1.597a.59.59 0 0 0-.59-.59Z"/>
      </g>
      <g clip-path="url(#at)">
        <path fill="#000" d="M33.476 35.648H30.7v2.778h2.777v-2.778Z"/>
      </g>
      <g clip-path="url(#au)">
        <path fill="#000" d="M36.253 37.836a.59.59 0 0 1-.59.59h-2.187v-2.778h2.777v2.188Z"/>
      </g>
      <g clip-path="url(#av)">
        <path fill="#000" d="M36.843 35.648h-.59v.59a.59.59 0 0 1 .59-.59Z"/>
      </g>
      <g clip-path="url(#aw)">
        <path fill="#000" d="M39.03 36.239v-.59h-.59a.59.59 0 0 1 .59.59Z"/>
      </g>
      <g clip-path="url(#ax)">
        <path fill="#000" d="M38.44 38.426a.59.59 0 0 0 .59-.59v.59h-.59Z"/>
      </g>
      <g clip-path="url(#ay)">
        <path fill="#000" d="M41.808 35.648H39.03v2.778h2.777v-2.778Z"/>
      </g>
      <g clip-path="url(#az)">
        <path fill="#000" d="M44.585 35.648h-2.777v2.778h2.777v-2.778Z"/>
      </g>
      <g clip-path="url(#aA)">
        <path fill="#000" d="M45.175 38.426a.59.59 0 0 1-.59-.59v.59h.59Z"/>
      </g>
      <g clip-path="url(#aB)">
        <path fill="#000" d="M55.693 36.239v-.59h-.59a.59.59 0 0 1 .59.59Z"/>
      </g>
      <g clip-path="url(#aC)">
        <path fill="#000" d="M55.103 38.426a.59.59 0 0 0 .59-.59v.59h-.59Z"/>
      </g>
      <g clip-path="url(#aD)">
        <path fill="#000" d="M58.47 35.648h-2.777v2.778h2.778v-2.778Z"/>
      </g>
      <g clip-path="url(#aE)">
        <path fill="#000" d="M59.06 35.648h-.59v.59a.59.59 0 0 1 .59-.59Z"/>
      </g>
      <g clip-path="url(#aF)">
        <path fill="#000" d="M72.356 36.239v-.59h-.59a.59.59 0 0 1 .59.59Z"/>
      </g>
      <g clip-path="url(#aG)">
        <path fill="#000" d="M75.133 35.648h-2.777v2.778h2.778v-2.778Z"/>
      </g>
      <g clip-path="url(#aH)">
        <path fill="#000" d="M77.91 35.648h-2.776v2.778h2.777v-2.778Z"/>
      </g>
      <g clip-path="url(#aI)">
        <path fill="#000" d="M80.688 35.648H77.91v2.778h2.777v-2.778Z"/>
      </g>
      <g clip-path="url(#aJ)">
        <path fill="#000" d="M81.278 38.426a.59.59 0 0 1-.59-.59v.59h.59Z"/>
      </g>
      <g clip-path="url(#aK)">
        <path fill="#000" d="M83.465 37.836a.59.59 0 0 0 .59.59h2.187v-2.778h-2.777v2.188Z"/>
      </g>
      <g clip-path="url(#aL)">
        <path fill="#000" d="M88.43 35.648a.59.59 0 0 1 .59.59v2.188h-2.778v-2.778h2.187Z"/>
      </g>
      <g clip-path="url(#aM)">
        <path fill="#000" d="M99.538 35.648H97.94a.59.59 0 0 0-.59.59v1.598c0 .325.264.59.59.59h1.597a.59.59 0 0 0 .59-.59v-1.597a.59.59 0 0 0-.59-.59Z"/>
      </g>
      <g clip-path="url(#aN)">
        <path fill="#000" d="M33.476 38.426H30.7v2.777h2.777v-2.777Z"/>
      </g>
      <g clip-path="url(#aO)">
        <path fill="#000" d="M34.066 38.426h-.59v.59a.59.59 0 0 1 .59-.59Z"/>
      </g>
      <g clip-path="url(#aP)">
        <path fill="#000" d="M34.066 41.203a.59.59 0 0 1-.59-.59v.59h.59Z"/>
      </g>
      <g clip-path="url(#aQ)">
        <path fill="#000" d="M38.44 38.426h-1.597a.59.59 0 0 0-.59.59v1.597a.59.59 0 0 0 .59.59h2.188v-2.777h-.59Z"/>
      </g>
      <g clip-path="url(#aR)">
        <path fill="#000" d="M41.808 38.426H39.03v2.777h2.777v-2.777Z"/>
      </g>
      <g clip-path="url(#aS)">
        <path fill="#000" d="M44.585 38.426h-2.777v2.777h2.777v-2.777Z"/>
      </g>
      <g clip-path="url(#aT)">
        <path fill="#000" d="M47.362 38.426h-2.777v2.777h2.777v-2.777Z"/>
      </g>
      <g clip-path="url(#aU)">
        <path fill="#000" d="M47.952 41.203h1.597a.59.59 0 0 0 .59-.59v-1.597a.59.59 0 0 0-.59-.59h-2.187v2.777h.59Z"/>
      </g>
      <g clip-path="url(#aV)">
        <path fill="#000" d="M55.103 38.426h-1.597a.59.59 0 0 0-.59.59v1.597a.59.59 0 0 0 .59.59h2.187v-2.777h-.59Z"/>
      </g>
      <g clip-path="url(#aW)">
        <path fill="#000" d="M58.47 38.426h-2.777v2.777h2.778v-2.777Z"/>
      </g>
      <g clip-path="url(#aX)">
        <path fill="#000" d="M60.658 41.203a.59.59 0 0 0 .59-.59v.59h-.59Z"/>
      </g>
      <g clip-path="url(#aY)">
        <path fill="#000" d="M59.06 41.203a.59.59 0 0 1-.59-.59v.59h.59Z"/>
      </g>
      <g clip-path="url(#aZ)">
        <path fill="#000" d="M61.838 38.426a.59.59 0 0 0-.59.59v2.187h2.777v-2.777h-2.187Z"/>
      </g>
      <g clip-path="url(#ba)">
        <path fill="#000" d="M66.802 38.426h-2.777v2.777h2.777v-2.777Z"/>
      </g>
      <g clip-path="url(#bb)">
        <path fill="#000" d="M67.392 41.203h1.597a.59.59 0 0 0 .59-.59v-1.597a.59.59 0 0 0-.59-.59h-2.187v2.777h.59Z"/>
      </g>
      <g clip-path="url(#bc)">
        <path fill="#000" d="M72.356 40.613a.59.59 0 0 0 .59.59h1.597a.59.59 0 0 0 .59-.59v-2.187h-2.777v2.187Z"/>
      </g>
      <g clip-path="url(#bd)">
        <path fill="#000" d="M75.724 38.426h-.59v.59a.59.59 0 0 1 .59-.59Z"/>
      </g>
      <g clip-path="url(#be)">
        <path fill="#000" d="M77.91 39.016v-.59h-.59a.59.59 0 0 1 .59.59Z"/>
      </g>
      <g clip-path="url(#bf)">
        <path fill="#000" d="M77.32 41.203a.59.59 0 0 0 .59-.59v.59h-.59Z"/>
      </g>
      <g clip-path="url(#bg)">
        <path fill="#000" d="M80.688 38.426H77.91v2.777h2.777v-2.777Z"/>
      </g>
      <g clip-path="url(#bh)">
        <path fill="#000" d="M81.278 41.203h1.597a.59.59 0 0 0 .59-.59v-1.597a.59.59 0 0 0-.59-.59h-2.187v2.777h.59Z"/>
      </g>
      <g clip-path="url(#bi)">
        <path fill="#000" d="M86.242 39.016v-.59h-.59a.59.59 0 0 1 .59.59Z"/>
      </g>
      <g clip-path="url(#bj)">
        <path fill="#000" d="M86.242 40.613a.59.59 0 0 0 .59.59h1.597a.59.59 0 0 0 .59-.59v-2.187h-2.777v2.187Z"/>
      </g>
      <g clip-path="url(#bk)">
        <path fill="#000" d="M93.984 38.426h-1.597a.59.59 0 0 0-.59.59v1.597c0 .325.264.59.59.59h1.597a.59.59 0 0 0 .59-.59v-1.597a.59.59 0 0 0-.59-.59Z"/>
      </g>
      <g clip-path="url(#bl)">
        <path fill="#000" d="M30.699 43.39a.59.59 0 0 0 .59.59h2.187v-2.777H30.7v2.187Z"/>
      </g>
      <g clip-path="url(#bm)">
        <path fill="#000" d="M34.066 43.98h1.597a.59.59 0 0 0 .59-.59v-1.597a.59.59 0 0 0-.59-.59h-2.187v2.777h.59Z"/>
      </g>
      <g clip-path="url(#bn)">
        <path fill="#000" d="M41.808 41.793v-.59h-.59a.59.59 0 0 1 .59.59Z"/>
      </g>
      <g clip-path="url(#bo)">
        <path fill="#000" d="M41.808 43.39a.59.59 0 0 0 .59.59h1.597a.59.59 0 0 0 .59-.59v-2.187h-2.777v2.187Z"/>
      </g>
      <g clip-path="url(#bp)">
        <path fill="#000" d="M45.175 41.203h-.59v.59a.59.59 0 0 1 .59-.59Z"/>
      </g>
      <g clip-path="url(#bq)">
        <path fill="#000" d="M52.326 41.203H50.73a.59.59 0 0 0-.59.59v1.597c0 .326.264.59.59.59h1.597a.59.59 0 0 0 .59-.59v-1.597a.59.59 0 0 0-.59-.59Z"/>
      </g>
      <g clip-path="url(#br)">
        <path fill="#000" d="M55.693 41.793v-.59h-.59a.59.59 0 0 1 .59.59Z"/>
      </g>
      <g clip-path="url(#bs)">
        <path fill="#000" d="M58.47 41.203h-2.777v2.777h2.778v-2.777Z"/>
      </g>
      <g clip-path="url(#bt)">
        <path fill="#000" d="M61.248 41.203H58.47v2.777h2.777v-2.777Z"/>
      </g>
      <g clip-path="url(#bu)">
        <path fill="#000" d="M64.025 41.203h-2.777v2.777h2.777v-2.777Z"/>
      </g>
      <g clip-path="url(#bv)">
        <path fill="#000" d="M64.615 41.203h-.59v.59a.59.59 0 0 1 .59-.59Z"/>
      </g>
      <g clip-path="url(#bw)">
        <path fill="#000" d="M72.356 43.39v-1.597a.59.59 0 0 0-.59-.59H70.17a.59.59 0 0 0-.59.59v2.187h2.777v-.59Z"/>
      </g>
      <g clip-path="url(#bx)">
        <path fill="#000" d="M72.947 43.98a.59.59 0 0 1-.59-.59v.59h.59Z"/>
      </g>
      <g clip-path="url(#by)">
        <path fill="#000" d="M77.32 41.203h-1.596a.59.59 0 0 0-.59.59v1.597a.59.59 0 0 0 .59.59h2.187v-2.777h-.59Z"/>
      </g>
      <g clip-path="url(#bz)">
        <path fill="#000" d="M80.688 43.39a.59.59 0 0 1-.59.59H77.91v-2.777h2.777v2.187Z"/>
      </g>
      <g clip-path="url(#bA)">
        <path fill="#000" d="M81.278 41.203h-.59v.59a.59.59 0 0 1 .59-.59Z"/>
      </g>
      <g clip-path="url(#bB)">
        <path fill="#000" d="M38.44 43.98h-1.597a.59.59 0 0 0-.59.59v1.597a.59.59 0 0 0 .59.59h2.188V43.98h-.59Z"/>
      </g>
      <g clip-path="url(#bC)">
        <path fill="#000" d="M41.218 43.98a.59.59 0 0 1 .59.59v2.187H39.03V43.98h2.187Z"/>
      </g>
      <g clip-path="url(#bD)">
        <path fill="#000" d="M46.772 43.98h-1.597a.59.59 0 0 0-.59.59v1.597a.59.59 0 0 0 .59.59h2.187V43.98h-.59Z"/>
      </g>
      <g clip-path="url(#bE)">
        <path fill="#000" d="M47.952 46.757h1.597a.59.59 0 0 0 .59-.59V44.57a.59.59 0 0 0-.59-.59h-2.187v2.777h.59Z"/>
      </g>
      <g clip-path="url(#bF)">
        <path fill="#000" d="M58.47 43.98h-2.777v2.777h2.778V43.98Z"/>
      </g>
      <g clip-path="url(#bG)">
        <path fill="#000" d="M59.06 43.98h-.59v.59a.59.59 0 0 1 .59-.59Z"/>
      </g>
      <g clip-path="url(#bH)">
        <path fill="#000" d="M61.248 44.57v-.59h-.59a.59.59 0 0 1 .59.59Z"/>
      </g>
      <g clip-path="url(#bI)">
        <path fill="#000" d="M59.06 46.757a.59.59 0 0 1-.59-.59v.59h.59Z"/>
      </g>
      <g clip-path="url(#bJ)">
        <path fill="#000" d="M61.248 46.167a.59.59 0 0 0 .59.59h1.597a.59.59 0 0 0 .59-.59V43.98h-2.777v2.187Z"/>
      </g>
      <g clip-path="url(#bK)">
        <path fill="#000" d="M72.356 43.98H69.58v2.777h2.777V43.98Z"/>
      </g>
      <g clip-path="url(#bL)">
        <path fill="#000" d="M72.947 46.757h1.596a.59.59 0 0 0 .59-.59V44.57a.59.59 0 0 0-.59-.59h-2.187v2.777h.59Z"/>
      </g>
      <g clip-path="url(#bM)">
        <path fill="#000" d="M80.098 46.757a.59.59 0 0 0 .59-.59v.59h-.59Z"/>
      </g>
      <g clip-path="url(#bN)">
        <path fill="#000" d="M81.278 43.98a.59.59 0 0 0-.59.59v2.187h2.777V43.98h-2.187Z"/>
      </g>
      <g clip-path="url(#bO)">
        <path fill="#000" d="M86.242 43.98h-2.777v2.777h2.777V43.98Z"/>
      </g>
      <g clip-path="url(#bP)">
        <path fill="#000" d="M89.02 43.98h-2.778v2.777h2.777V43.98Z"/>
      </g>
      <g clip-path="url(#bQ)">
        <path fill="#000" d="M89.61 46.757h1.596a.59.59 0 0 0 .59-.59V44.57a.59.59 0 0 0-.59-.59H89.02v2.777h.59Z"/>
      </g>
      <g clip-path="url(#bR)">
        <path fill="#000" d="M96.76 43.98h-1.596a.59.59 0 0 0-.59.59v1.597a.59.59 0 0 0 .59.59h2.187V43.98h-.59Z"/>
      </g>
      <g clip-path="url(#bS)">
        <path fill="#000" d="M97.941 46.757h1.597a.59.59 0 0 0 .59-.59V44.57a.59.59 0 0 0-.59-.59H97.35v2.777h.59Z"/>
      </g>
      <g clip-path="url(#bT)">
        <path fill="#000" d="M33.476 48.944v-1.597a.59.59 0 0 0-.59-.59h-1.597a.59.59 0 0 0-.59.59v2.187h2.777v-.59Z"/>
      </g>
      <g clip-path="url(#bU)">
        <path fill="#000" d="M39.03 47.347v-.59h-.59a.59.59 0 0 1 .59.59Z"/>
      </g>
      <g clip-path="url(#bV)">
        <path fill="#000" d="M38.44 49.534a.59.59 0 0 0 .59-.59v.59h-.59Z"/>
      </g>
      <g clip-path="url(#bW)">
        <path fill="#000" d="M41.808 46.757H39.03v2.777h2.777v-2.777Z"/>
      </g>
      <g clip-path="url(#bX)">
        <path fill="#000" d="M58.47 46.757h-2.777v2.777h2.778v-2.777Z"/>
      </g>
      <g clip-path="url(#bY)">
        <path fill="#000" d="M59.06 49.534h1.598a.59.59 0 0 0 .59-.59v-1.597a.59.59 0 0 0-.59-.59H58.47v2.777h.59Z"/>
      </g>
      <g clip-path="url(#bZ)">
        <path fill="#000" d="M66.212 46.757h-1.597a.59.59 0 0 0-.59.59v1.597c0 .326.264.59.59.59h1.597a.59.59 0 0 0 .59-.59v-1.597a.59.59 0 0 0-.59-.59Z"/>
      </g>
      <g clip-path="url(#ca)">
        <path fill="#000" d="M68.989 49.534a.59.59 0 0 0 .59-.59v.59h-.59Z"/>
      </g>
      <g clip-path="url(#cb)">
        <path fill="#000" d="M72.356 46.757H69.58v2.777h2.777v-2.777Z"/>
      </g>
      <g clip-path="url(#cc)">
        <path fill="#000" d="M72.947 46.757h-.59v.59a.59.59 0 0 1 .59-.59Z"/>
      </g>
      <g clip-path="url(#cd)">
        <path fill="#000" d="M77.32 46.757h-1.596a.59.59 0 0 0-.59.59v1.597a.59.59 0 0 0 .59.59h2.187v-2.777h-.59Z"/>
      </g>
      <g clip-path="url(#ce)">
        <path fill="#000" d="M80.688 46.757H77.91v2.777h2.777v-2.777Z"/>
      </g>
      <g clip-path="url(#cf)">
        <path fill="#000" d="M83.465 46.757h-2.777v2.777h2.777v-2.777Z"/>
      </g>
      <g clip-path="url(#cg)">
        <path fill="#000" d="M86.242 46.757h-2.777v2.777h2.777v-2.777Z"/>
      </g>
      <g clip-path="url(#ch)">
        <path fill="#000" d="M89.02 46.757h-2.778v2.777h2.777v-2.777Z"/>
      </g>
      <g clip-path="url(#ci)">
        <path fill="#000" d="M89.61 46.757h-.59v.59a.59.59 0 0 1 .59-.59Z"/>
      </g>
      <g clip-path="url(#cj)">
        <path fill="#000" d="M33.476 49.534H30.7v2.777h2.777v-2.777Z"/>
      </g>
      <g clip-path="url(#ck)">
        <path fill="#000" d="M36.843 49.534a.59.59 0 0 0-.59.59v2.187h2.778v-2.777h-2.188Z"/>
      </g>
      <g clip-path="url(#cl)">
        <path fill="#000" d="M41.808 51.721a.59.59 0 0 1-.59.59H39.03v-2.777h2.778v2.187Z"/>
      </g>
      <g clip-path="url(#cm)">
        <path fill="#000" d="M43.995 52.311a.59.59 0 0 0 .59-.59v.59h-.59Z"/>
      </g>
      <g clip-path="url(#cn)">
        <path fill="#000" d="M45.175 49.534a.59.59 0 0 0-.59.59v2.187h2.777v-2.777h-2.187Z"/>
      </g>
      <g clip-path="url(#co)">
        <path fill="#000" d="M50.14 49.534h-2.778v2.777h2.777v-2.777Z"/>
      </g>
      <g clip-path="url(#cp)">
        <path fill="#000" d="M52.326 49.534a.59.59 0 0 1 .59.59v2.187H50.14v-2.777h2.187Z"/>
      </g>
      <g clip-path="url(#cq)">
        <path fill="#000" d="M58.47 49.534h-2.777v2.777h2.778v-2.777Z"/>
      </g>
      <g clip-path="url(#cr)">
        <path fill="#000" d="M59.06 49.534h-.59v.59a.59.59 0 0 1 .59-.59Z"/>
      </g>
      <g clip-path="url(#cs)">
        <path fill="#000" d="M59.06 52.311a.59.59 0 0 1-.59-.59v.59h.59Z"/>
      </g>
      <g clip-path="url(#ct)">
        <path fill="#000" d="M68.989 49.534h-1.597a.59.59 0 0 0-.59.59v1.597a.59.59 0 0 0 .59.59h2.187v-2.777h-.59Z"/>
      </g>
      <g clip-path="url(#cu)">
        <path fill="#000" d="M72.356 51.721a.59.59 0 0 1-.59.59H69.58v-2.777h2.777v2.187Z"/>
      </g>
      <g clip-path="url(#cv)">
        <path fill="#000" d="M77.91 50.124v-.59h-.59a.59.59 0 0 1 .59.59Z"/>
      </g>
      <g clip-path="url(#cw)">
        <path fill="#000" d="M80.688 49.534H77.91v2.777h2.777v-2.777Z"/>
      </g>
      <g clip-path="url(#cx)">
        <path fill="#000" d="M83.465 51.721a.59.59 0 0 1-.59.59h-2.187v-2.777h2.777v2.187Z"/>
      </g>
      <g clip-path="url(#cy)">
        <path fill="#000" d="M84.055 49.534h-.59v.59a.59.59 0 0 1 .59-.59Z"/>
      </g>
      <g clip-path="url(#cz)">
        <path fill="#000" d="M86.242 50.124v-.59h-.59a.59.59 0 0 1 .59.59Z"/>
      </g>
      <g clip-path="url(#cA)">
        <path fill="#000" d="M86.242 51.721a.59.59 0 0 0 .59.59h1.597a.59.59 0 0 0 .59-.59v-2.187h-2.777v2.187Z"/>
      </g>
      <g clip-path="url(#cB)">
        <path fill="#000" d="M93.984 49.534h-1.597a.59.59 0 0 0-.59.59v1.597a.59.59 0 0 0 .59.59h2.187v-2.777h-.59Z"/>
      </g>
      <g clip-path="url(#cC)">
        <path fill="#000" d="M97.35 49.534h-2.776v2.777h2.777v-2.777Z"/>
      </g>
      <g clip-path="url(#cD)">
        <path fill="#000" d="M99.538 49.534a.59.59 0 0 1 .59.59v2.187h-2.777v-2.777h2.187Z"/>
      </g>
      <g clip-path="url(#cE)">
        <path fill="#000" d="M33.476 52.311H30.7v2.778h2.777V52.31Z"/>
      </g>
      <g clip-path="url(#cF)">
        <path fill="#000" d="M36.253 54.498a.59.59 0 0 0 .59.59h1.597a.59.59 0 0 0 .59-.59v-2.187h-2.777v2.187Z"/>
      </g>
      <g clip-path="url(#cG)">
        <path fill="#000" d="M39.62 52.311h-.59v.59a.59.59 0 0 1 .59-.59Z"/>
      </g>
      <g clip-path="url(#cH)">
        <path fill="#000" d="M43.995 52.311h-1.597a.59.59 0 0 0-.59.59v1.597a.59.59 0 0 0 .59.59h2.187v-2.777h-.59Z"/>
      </g>
      <g clip-path="url(#cI)">
        <path fill="#000" d="M47.362 52.311h-2.777v2.778h2.777V52.31Z"/>
      </g>
      <g clip-path="url(#cJ)">
        <path fill="#000" d="M47.952 52.311h-.59v.59a.59.59 0 0 1 .59-.59Z"/>
      </g>
      <g clip-path="url(#cK)">
        <path fill="#000" d="M50.14 52.901v-.59h-.591a.59.59 0 0 1 .59.59Z"/>
      </g>
      <g clip-path="url(#cL)">
        <path fill="#000" d="M49.549 55.089a.59.59 0 0 0 .59-.59v.59h-.59Z"/>
      </g>
      <g clip-path="url(#cM)">
        <path fill="#000" d="M47.952 55.089a.59.59 0 0 1-.59-.59v.59h.59Z"/>
      </g>
      <g clip-path="url(#cN)">
        <path fill="#000" d="M52.916 52.311H50.14v2.778h2.777V52.31Z"/>
      </g>
      <g clip-path="url(#cO)">
        <path fill="#000" d="M58.47 52.311h-2.777v2.778h2.778V52.31Z"/>
      </g>
      <g clip-path="url(#cP)">
        <path fill="#000" d="M59.06 55.089h1.598a.59.59 0 0 0 .59-.59V52.9a.59.59 0 0 0-.59-.59H58.47v2.778h.59Z"/>
      </g>
      <g clip-path="url(#cQ)">
        <path fill="#000" d="M66.802 54.498v-1.596a.59.59 0 0 0-.59-.59h-1.597a.59.59 0 0 0-.59.59v2.187h2.777v-.59Z"/>
      </g>
      <g clip-path="url(#cR)">
        <path fill="#000" d="M67.392 55.089a.59.59 0 0 1-.59-.59v.59h.59Z"/>
      </g>
      <g clip-path="url(#cS)">
        <path fill="#000" d="M77.32 55.089a.59.59 0 0 0 .59-.59v.59h-.59Z"/>
      </g>
      <g clip-path="url(#cT)">
        <path fill="#000" d="M80.688 52.311H77.91v2.778h2.777V52.31Z"/>
      </g>
      <g clip-path="url(#cU)">
        <path fill="#000" d="M81.278 52.311h-.59v.59a.59.59 0 0 1 .59-.59Z"/>
      </g>
      <g clip-path="url(#cV)">
        <path fill="#000" d="M81.278 55.089a.59.59 0 0 1-.59-.59v.59h.59Z"/>
      </g>
      <g clip-path="url(#cW)">
        <path fill="#000" d="M94.574 52.901v-.59h-.59a.59.59 0 0 1 .59.59Z"/>
      </g>
      <g clip-path="url(#cX)">
        <path fill="#000" d="M94.574 54.498a.59.59 0 0 0 .59.59h2.187v-2.777h-2.777v2.187Z"/>
      </g>
      <g clip-path="url(#cY)">
        <path fill="#000" d="M100.128 52.311h-2.777v2.778h2.777V52.31Z"/>
      </g>
      <g clip-path="url(#cZ)">
        <path fill="#000" d="M30.699 57.276a.59.59 0 0 0 .59.59h1.597a.59.59 0 0 0 .59-.59v-2.188H30.7v2.188Z"/>
      </g>
      <g clip-path="url(#da)">
        <path fill="#000" d="M44.585 55.679v-.59h-.59a.59.59 0 0 1 .59.59Z"/>
      </g>
      <g clip-path="url(#db)">
        <path fill="#000" d="M44.585 57.276a.59.59 0 0 0 .59.59h2.187v-2.777h-2.777v2.187Z"/>
      </g>
      <g clip-path="url(#dc)">
        <path fill="#000" d="M50.14 55.089h-2.778v2.777h2.777v-2.777Z"/>
      </g>
      <g clip-path="url(#dd)">
        <path fill="#000" d="M52.916 57.276a.59.59 0 0 1-.59.59H50.14v-2.777h2.777v2.187Z"/>
      </g>
      <g clip-path="url(#de)">
        <path fill="#000" d="M55.103 57.866a.59.59 0 0 0 .59-.59v.59h-.59Z"/>
      </g>
      <g clip-path="url(#df)">
        <path fill="#000" d="M58.47 55.089h-2.777v2.777h2.778v-2.777Z"/>
      </g>
      <g clip-path="url(#dg)">
        <path fill="#000" d="M59.06 55.089h-.59v.59a.59.59 0 0 1 .59-.59Z"/>
      </g>
      <g clip-path="url(#dh)">
        <path fill="#000" d="M64.025 57.276a.59.59 0 0 0 .59.59h2.187v-2.777h-2.777v2.187Z"/>
      </g>
      <g clip-path="url(#di)">
        <path fill="#000" d="M67.392 57.866h1.597a.59.59 0 0 0 .59-.59v-1.597a.59.59 0 0 0-.59-.59h-2.187v2.777h.59Z"/>
      </g>
      <g clip-path="url(#dj)">
        <path fill="#000" d="M74.543 55.089h-1.597a.59.59 0 0 0-.59.59v1.596a.59.59 0 0 0 .59.59h2.188V55.09h-.59Z"/>
      </g>
      <g clip-path="url(#dk)">
        <path fill="#000" d="M77.91 55.089h-2.776v2.777h2.777v-2.777Z"/>
      </g>
      <g clip-path="url(#dl)">
        <path fill="#000" d="M80.688 55.089H77.91v2.777h2.777v-2.777Z"/>
      </g>
      <g clip-path="url(#dm)">
        <path fill="#000" d="M83.465 55.089h-2.777v2.777h2.777v-2.777Z"/>
      </g>
      <g clip-path="url(#dn)">
        <path fill="#000" d="M86.242 55.089h-2.777v2.777h2.777v-2.777Z"/>
      </g>
      <g clip-path="url(#do)">
        <path fill="#000" d="M89.02 55.089h-2.778v2.777h2.777v-2.777Z"/>
      </g>
      <g clip-path="url(#dp)">
        <path fill="#000" d="M89.61 57.866h1.596a.59.59 0 0 0 .59-.59v-1.597a.59.59 0 0 0-.59-.59H89.02v2.777h.59Z"/>
      </g>
      <g clip-path="url(#dq)">
        <path fill="#000" d="M97.35 55.679v-.59h-.59a.59.59 0 0 1 .59.59Z"/>
      </g>
      <g clip-path="url(#dr)">
        <path fill="#000" d="M100.128 55.089h-2.777v2.777h2.777v-2.777Z"/>
      </g>
      <g clip-path="url(#ds)">
        <path fill="#000" d="M53.506 57.866a.59.59 0 0 0-.59.59v2.187h2.777v-2.777h-2.187Z"/>
      </g>
      <g clip-path="url(#dt)">
        <path fill="#000" d="M58.47 57.866h-2.777v2.777h2.778v-2.777Z"/>
      </g>
      <g clip-path="url(#du)">
        <path fill="#000" d="M68.989 60.643a.59.59 0 0 0 .59-.59v.59h-.59Z"/>
      </g>
      <g clip-path="url(#dv)">
        <path fill="#000" d="M72.356 60.053v-1.597a.59.59 0 0 0-.59-.59H70.17a.59.59 0 0 0-.59.59v2.187h2.777v-.59Z"/>
      </g>
      <g clip-path="url(#dw)">
        <path fill="#000" d="M75.133 58.456v-.59h-.59a.59.59 0 0 1 .59.59Z"/>
      </g>
      <g clip-path="url(#dx)">
        <path fill="#000" d="M77.91 57.866h-2.776v2.777h2.777v-2.777Z"/>
      </g>
      <g clip-path="url(#dy)">
        <path fill="#000" d="M78.5 57.866h-.59v.59a.59.59 0 0 1 .59-.59Z"/>
      </g>
      <g clip-path="url(#dz)">
        <path fill="#000" d="M86.242 58.456v-.59h-.59a.59.59 0 0 1 .59.59Z"/>
      </g>
      <g clip-path="url(#dA)">
        <path fill="#000" d="M89.02 57.866h-2.778v2.777h2.777v-2.777Z"/>
      </g>
      <g clip-path="url(#dB)">
        <path fill="#000" d="M89.61 57.866h-.59v.59a.59.59 0 0 1 .59-.59Z"/>
      </g>
      <g clip-path="url(#dC)">
        <path fill="#000" d="M96.76 60.643a.59.59 0 0 0 .59-.59v.59h-.59Z"/>
      </g>
      <g clip-path="url(#dD)">
        <path fill="#000" d="M100.128 57.866h-2.777v2.777h2.777v-2.777Z"/>
      </g>
      <g clip-path="url(#dE)">
        <path fill="#000" d="M52.916 62.83a.59.59 0 0 0 .59.59h2.187v-2.777h-2.777v2.187Z"/>
      </g>
      <g clip-path="url(#dF)">
        <path fill="#000" d="M58.47 60.643h-2.777v2.777h2.778v-2.777Z"/>
      </g>
      <g clip-path="url(#dG)">
        <path fill="#000" d="M60.658 63.42a.59.59 0 0 0 .59-.59v.59h-.59Z"/>
      </g>
      <g clip-path="url(#dH)">
        <path fill="#000" d="M59.06 63.42a.59.59 0 0 1-.59-.59v.59h.59Z"/>
      </g>
      <g clip-path="url(#dI)">
        <path fill="#000" d="M61.838 60.643a.59.59 0 0 0-.59.59v2.187h2.777v-2.777h-2.187Z"/>
      </g>
      <g clip-path="url(#dJ)">
        <path fill="#000" d="M66.802 60.643h-2.777v2.777h2.777v-2.777Z"/>
      </g>
      <g clip-path="url(#dK)">
        <path fill="#000" d="M69.58 60.643h-2.778v2.777h2.777v-2.777Z"/>
      </g>
      <g clip-path="url(#dL)">
        <path fill="#000" d="M72.356 62.83a.59.59 0 0 1-.59.59H69.58v-2.777h2.777v2.187Z"/>
      </g>
      <g clip-path="url(#dM)">
        <path fill="#000" d="M77.91 60.643h-2.776v2.777h2.777v-2.777Z"/>
      </g>
      <g clip-path="url(#dN)">
        <path fill="#000" d="M82.875 60.643h-1.597a.59.59 0 0 0-.59.59v1.597c0 .326.264.59.59.59h1.597a.59.59 0 0 0 .59-.59v-1.597a.59.59 0 0 0-.59-.59Z"/>
      </g>
      <g clip-path="url(#dO)">
        <path fill="#000" d="M89.02 60.643h-2.778v2.777h2.777v-2.777Z"/>
      </g>
      <g clip-path="url(#dP)">
        <path fill="#000" d="M89.61 63.42a.59.59 0 0 1-.59-.59v.59h.59Z"/>
      </g>
      <g clip-path="url(#dQ)">
        <path fill="#000" d="M93.984 60.643h-1.597a.59.59 0 0 0-.59.59v1.597a.59.59 0 0 0 .59.59h2.187v-2.777h-.59Z"/>
      </g>
      <g clip-path="url(#dR)">
        <path fill="#000" d="M97.35 60.643h-2.776v2.777h2.777v-2.777Z"/>
      </g>
      <g clip-path="url(#dS)">
        <path fill="#000" d="M100.128 62.83a.589.589 0 0 1-.59.59H97.35v-2.777h2.777v2.187Z"/>
      </g>
      <g clip-path="url(#dT)">
        <path fill="#000" d="M55.693 64.01v-.59h-.59a.59.59 0 0 1 .59.59Z"/>
      </g>
      <g clip-path="url(#dU)">
        <path fill="#000" d="M55.693 65.607a.59.59 0 0 0 .59.59h2.188V63.42h-2.778v2.187Z"/>
      </g>
      <g clip-path="url(#dV)">
        <path fill="#000" d="M61.248 63.42H58.47v2.777h2.777V63.42Z"/>
      </g>
      <g clip-path="url(#dW)">
        <path fill="#000" d="M64.025 63.42h-2.777v2.777h2.777V63.42Z"/>
      </g>
      <g clip-path="url(#dX)">
        <path fill="#000" d="M64.615 63.42h-.59v.59a.59.59 0 0 1 .59-.59Z"/>
      </g>
      <g clip-path="url(#dY)">
        <path fill="#000" d="M66.802 64.01v-.59h-.59a.59.59 0 0 1 .59.59Z"/>
      </g>
      <g clip-path="url(#dZ)">
        <path fill="#000" d="M64.615 66.197a.59.59 0 0 1-.59-.59v.59h.59Z"/>
      </g>
      <g clip-path="url(#ea)">
        <path fill="#000" d="M66.802 65.607a.59.59 0 0 0 .59.59h1.597a.59.59 0 0 0 .59-.59V63.42h-2.777v2.187Z"/>
      </g>
      <g clip-path="url(#eb)">
        <path fill="#000" d="M70.17 63.42h-.59v.59a.59.59 0 0 1 .59-.59Z"/>
      </g>
      <g clip-path="url(#ec)">
        <path fill="#000" d="M77.91 63.42h-2.776v2.777h2.777V63.42Z"/>
      </g>
      <g clip-path="url(#ed)">
        <path fill="#000" d="M78.5 66.197a.59.59 0 0 1-.59-.59v.59h.59Z"/>
      </g>
      <g clip-path="url(#ee)">
        <path fill="#000" d="M85.652 66.197a.59.59 0 0 0 .59-.59v.59h-.59Z"/>
      </g>
      <g clip-path="url(#ef)">
        <path fill="#000" d="M89.02 63.42h-2.778v2.777h2.777V63.42Z"/>
      </g>
      <g clip-path="url(#eg)">
        <path fill="#000" d="M91.206 63.42a.59.59 0 0 1 .59.59v2.187H89.02V63.42h2.187Z"/>
      </g>
      <g clip-path="url(#eh)">
        <path fill="#000" d="M55.693 68.384v-1.597a.59.59 0 0 0-.59-.59h-1.597a.59.59 0 0 0-.59.59v2.187h2.777v-.59Z"/>
      </g>
      <g clip-path="url(#ei)">
        <path fill="#000" d="M56.283 68.974a.59.59 0 0 1-.59-.59v.59h.59Z"/>
      </g>
      <g clip-path="url(#ej)">
        <path fill="#000" d="M61.248 66.787v-.59h-.59a.59.59 0 0 1 .59.59Z"/>
      </g>
      <g clip-path="url(#ek)">
        <path fill="#000" d="M61.248 68.384a.59.59 0 0 0 .59.59h2.187v-2.777h-2.777v2.187Z"/>
      </g>
      <g clip-path="url(#el)">
        <path fill="#000" d="M66.212 66.197a.59.59 0 0 1 .59.59v2.187h-2.777v-2.777h2.187Z"/>
      </g>
      <g clip-path="url(#em)">
        <path fill="#000" d="M74.543 68.974a.59.59 0 0 0 .59-.59v.59h-.59Z"/>
      </g>
      <g clip-path="url(#en)">
        <path fill="#000" d="M77.91 66.197h-2.776v2.777h2.777v-2.777Z"/>
      </g>
      <g clip-path="url(#eo)">
        <path fill="#000" d="M80.688 66.197H77.91v2.777h2.777v-2.777Z"/>
      </g>
      <g clip-path="url(#ep)">
        <path fill="#000" d="M83.465 66.197h-2.777v2.777h2.777v-2.777Z"/>
      </g>
      <g clip-path="url(#eq)">
        <path fill="#000" d="M86.242 66.197h-2.777v2.777h2.777v-2.777Z"/>
      </g>
      <g clip-path="url(#er)">
        <path fill="#000" d="M89.02 66.197h-2.778v2.777h2.777v-2.777Z"/>
      </g>
      <g clip-path="url(#es)">
        <path fill="#000" d="M91.796 68.384a.59.59 0 0 1-.59.59H89.02v-2.777h2.777v2.187Z"/>
      </g>
      <g clip-path="url(#et)">
        <path fill="#000" d="M55.693 68.974h-2.777v2.777h2.777v-2.777Z"/>
      </g>
      <g clip-path="url(#eu)">
        <path fill="#000" d="M58.47 68.974h-2.777v2.777h2.778v-2.777Z"/>
      </g>
      <g clip-path="url(#ev)">
        <path fill="#000" d="M60.658 68.974a.59.59 0 0 1 .59.59v2.188H58.47v-2.778h2.187Z"/>
      </g>
      <g clip-path="url(#ew)">
        <path fill="#000" d="M64.025 69.564v-.59h-.59a.59.59 0 0 1 .59.59Z"/>
      </g>
      <g clip-path="url(#ex)">
        <path fill="#000" d="M66.802 68.974h-2.777v2.777h2.777v-2.777Z"/>
      </g>
      <g clip-path="url(#ey)">
        <path fill="#000" d="M70.17 68.974a.59.59 0 0 0-.59.59v2.188h2.776v-2.778H70.17Z"/>
      </g>
      <g clip-path="url(#ez)">
        <path fill="#000" d="M75.133 68.974h-2.777v2.777h2.778v-2.777Z"/>
      </g>
      <g clip-path="url(#eA)">
        <path fill="#000" d="M77.91 71.161a.59.59 0 0 1-.59.59h-2.186v-2.777h2.777v2.187Z"/>
      </g>
      <g clip-path="url(#eB)">
        <path fill="#000" d="M78.5 68.974h-.59v.59a.59.59 0 0 1 .59-.59Z"/>
      </g>
      <g clip-path="url(#eC)">
        <path fill="#000" d="M80.688 69.564v-.59h-.59a.59.59 0 0 1 .59.59Z"/>
      </g>
      <g clip-path="url(#eD)">
        <path fill="#000" d="M80.688 71.161a.59.59 0 0 0 .59.59h1.597a.59.59 0 0 0 .59-.59v-2.187h-2.777v2.187Z"/>
      </g>
      <g clip-path="url(#eE)">
        <path fill="#000" d="M84.055 68.974h-.59v.59a.59.59 0 0 1 .59-.59Z"/>
      </g>
      <g clip-path="url(#eF)">
        <path fill="#000" d="M86.242 69.564v-.59h-.59a.59.59 0 0 1 .59.59Z"/>
      </g>
      <g clip-path="url(#eG)">
        <path fill="#000" d="M89.02 68.974h-2.778v2.777h2.777v-2.777Z"/>
      </g>
      <g clip-path="url(#eH)">
        <path fill="#000" d="M89.61 68.974h-.59v.59a.59.59 0 0 1 .59-.59Z"/>
      </g>
      <g clip-path="url(#eI)">
        <path fill="#000" d="M96.76 68.974h-1.596a.59.59 0 0 0-.59.59v1.597a.59.59 0 0 0 .59.59h2.187v-2.777h-.59Z"/>
      </g>
      <g clip-path="url(#eJ)">
        <path fill="#000" d="M99.538 68.974a.59.59 0 0 1 .59.59v2.188h-2.777v-2.778h2.187Z"/>
      </g>
      <g clip-path="url(#eK)">
        <path fill="#000" d="M55.693 71.751h-2.777v2.778h2.777V71.75Z"/>
      </g>
      <g clip-path="url(#eL)">
        <path fill="#000" d="M56.283 71.751h-.59v.59a.59.59 0 0 1 .59-.59Z"/>
      </g>
      <g clip-path="url(#eM)">
        <path fill="#000" d="M58.47 72.342v-.59h-.59a.59.59 0 0 1 .59.59Z"/>
      </g>
      <g clip-path="url(#eN)">
        <path fill="#000" d="M61.248 71.751H58.47v2.778h2.777V71.75Z"/>
      </g>
      <g clip-path="url(#eO)">
        <path fill="#000" d="M66.802 71.751h-2.777v2.778h2.777V71.75Z"/>
      </g>
      <g clip-path="url(#eP)">
        <path fill="#000" d="M69.58 73.939a.59.59 0 0 0 .59.59h1.596a.59.59 0 0 0 .59-.59V71.75H69.58v2.188Z"/>
      </g>
      <g clip-path="url(#eQ)">
        <path fill="#000" d="M72.947 71.751h-.59v.59a.59.59 0 0 1 .59-.59Z"/>
      </g>
      <g clip-path="url(#eR)">
        <path fill="#000" d="M85.652 74.529a.59.59 0 0 0 .59-.59v.59h-.59Z"/>
      </g>
      <g clip-path="url(#eS)">
        <path fill="#000" d="M89.02 71.751h-2.778v2.778h2.777V71.75Z"/>
      </g>
      <g clip-path="url(#eT)">
        <path fill="#000" d="M89.61 74.529a.59.59 0 0 1-.59-.59v.59h.59Z"/>
      </g>
      <g clip-path="url(#eU)">
        <path fill="#000" d="M93.984 71.751h-1.597a.59.59 0 0 0-.59.59v1.598c0 .326.264.59.59.59h1.597a.59.59 0 0 0 .59-.59v-1.597a.59.59 0 0 0-.59-.59Z"/>
      </g>
      <g clip-path="url(#eV)">
        <path fill="#000" d="M97.35 72.342v-.59h-.59a.59.59 0 0 1 .59.59Z"/>
      </g>
      <g clip-path="url(#eW)">
        <path fill="#000" d="M97.35 73.939a.59.59 0 0 0 .591.59h1.597a.59.59 0 0 0 .59-.59V71.75h-2.777v2.188Z"/>
      </g>
      <g clip-path="url(#eX)">
        <path fill="#000" d="M55.693 74.529h-2.777v2.777h2.777v-2.777Z"/>
      </g>
      <g clip-path="url(#eY)">
        <path fill="#000" d="M57.88 77.306a.59.59 0 0 0 .59-.59v.59h-.59Z"/>
      </g>
      <g clip-path="url(#eZ)">
        <path fill="#000" d="M56.283 77.306a.59.59 0 0 1-.59-.59v.59h.59Z"/>
      </g>
      <g clip-path="url(#fa)">
        <path fill="#000" d="M61.248 74.529H58.47v2.777h2.777v-2.777Z"/>
      </g>
      <g clip-path="url(#fb)">
        <path fill="#000" d="M64.025 76.716a.59.59 0 0 0 .59.59h1.597a.59.59 0 0 0 .59-.59v-2.187h-2.777v2.187Z"/>
      </g>
      <g clip-path="url(#fc)">
        <path fill="#000" d="M77.32 74.529h-1.596a.59.59 0 0 0-.59.59v1.597a.59.59 0 0 0 .59.59h2.187v-2.777h-.59Z"/>
      </g>
      <g clip-path="url(#fd)">
        <path fill="#000" d="M80.688 74.529H77.91v2.777h2.777v-2.777Z"/>
      </g>
      <g clip-path="url(#fe)">
        <path fill="#000" d="M83.465 74.529h-2.777v2.777h2.777v-2.777Z"/>
      </g>
      <g clip-path="url(#ff)">
        <path fill="#000" d="M86.242 74.529h-2.777v2.777h2.777v-2.777Z"/>
      </g>
      <g clip-path="url(#fg)">
        <path fill="#000" d="M89.02 74.529h-2.778v2.777h2.777v-2.777Z"/>
      </g>
      <g clip-path="url(#fh)">
        <path fill="#000" d="M89.61 77.306h1.596a.59.59 0 0 0 .59-.59v-1.597a.59.59 0 0 0-.59-.59H89.02v2.777h.59Z"/>
      </g>
      <g clip-path="url(#fi)">
        <path fill="#000" d="M93.984 77.306a.59.59 0 0 0 .59-.59v.59h-.59Z"/>
      </g>
      <g clip-path="url(#fj)">
        <path fill="#000" d="M97.35 76.716v-1.597a.59.59 0 0 0-.59-.59h-1.596a.59.59 0 0 0-.59.59v2.187h2.777v-.59Z"/>
      </g>
      <g clip-path="url(#fk)">
        <path fill="#000" d="M97.941 77.306a.59.59 0 0 1-.59-.59v.59h.59Z"/>
      </g>
      <g clip-path="url(#fl)">
        <path fill="#000" d="M52.916 79.493a.59.59 0 0 0 .59.59h2.187v-2.777h-2.777v2.187Z"/>
      </g>
      <g clip-path="url(#fm)">
        <path fill="#000" d="M58.47 77.306h-2.777v2.777h2.778v-2.777Z"/>
      </g>
      <g clip-path="url(#fn)">
        <path fill="#000" d="M61.248 79.493a.59.59 0 0 1-.59.59H58.47v-2.777h2.777v2.187Z"/>
      </g>
      <g clip-path="url(#fo)">
        <path fill="#000" d="M68.989 77.306h-1.597a.59.59 0 0 0-.59.59v1.597c0 .326.264.59.59.59h1.597a.59.59 0 0 0 .59-.59v-1.597a.59.59 0 0 0-.59-.59Z"/>
      </g>
      <g clip-path="url(#fp)">
        <path fill="#000" d="M74.543 77.306h-1.597a.59.59 0 0 0-.59.59v1.597c0 .326.265.59.59.59h1.597a.59.59 0 0 0 .59-.59v-1.597a.59.59 0 0 0-.59-.59Z"/>
      </g>
      <g clip-path="url(#fq)">
        <path fill="#000" d="M93.984 77.306h-1.597a.59.59 0 0 0-.59.59v1.597a.59.59 0 0 0 .59.59h2.187v-2.777h-.59Z"/>
      </g>
      <g clip-path="url(#fr)">
        <path fill="#000" d="M97.35 77.306h-2.776v2.777h2.777v-2.777Z"/>
      </g>
      <g clip-path="url(#fs)">
        <path fill="#000" d="M97.941 80.083h1.597a.59.59 0 0 0 .59-.59v-1.597a.59.59 0 0 0-.59-.59H97.35v2.777h.59Z"/>
      </g>
      <g clip-path="url(#ft)">
        <path fill="#000" d="M31.288 10.65a.594.594 0 0 0-.592.592v18.263c0 .325.264.591.591.591H49.55a.592.592 0 0 0 .592-.591V11.242a.592.592 0 0 0-.592-.591H31.288Zm16.074 5.558v10.77a.338.338 0 0 1-.34.338H33.816a.338.338 0 0 1-.34-.338V13.77c0-.19.154-.34.34-.34h13.208a.34.34 0 0 1 .339.34v2.438Z"/>
      </g>
      <path fill="#000" d="M44.585 21.763v-4.966a.592.592 0 0 0-.592-.591h-7.151a.592.592 0 0 0-.591.591v7.154a.59.59 0 0 0 .591.591h7.151a.592.592 0 0 0 .592-.591v-2.188Z"/>
      <g clip-path="url(#fu)">
        <path fill="#000" d="M81.276 10.65a.594.594 0 0 0-.591.592v18.263c0 .325.264.591.591.591H99.54a.592.592 0 0 0 .591-.591V11.242a.592.592 0 0 0-.591-.591H81.276Zm16.075 5.558v10.77a.338.338 0 0 1-.34.339H83.805a.338.338 0 0 1-.34-.34V13.77c0-.19.154-.34.34-.34h13.208c.189 0 .338.154.338.34v2.438Z"/>
      </g>
      <path fill="#000" d="M94.574 21.763v-4.966a.592.592 0 0 0-.592-.591h-7.151a.592.592 0 0 0-.592.591v7.154c0 .325.264.591.592.591h7.151a.592.592 0 0 0 .592-.591v-2.188Z"/>
      <g clip-path="url(#fv)">
        <path fill="#000" d="M31.288 60.64a.594.594 0 0 0-.592.591v18.263c0 .325.264.592.592.592H49.55a.592.592 0 0 0 .592-.592V61.231a.592.592 0 0 0-.592-.591H31.288Zm16.074 5.557v10.77a.338.338 0 0 1-.339.339H33.815a.338.338 0 0 1-.339-.34V63.76c0-.19.153-.34.339-.34h13.208a.34.34 0 0 1 .339.34v2.438Z"/>
      </g>
      <path fill="#000" d="M44.585 71.751v-4.965a.592.592 0 0 0-.592-.592h-7.151a.592.592 0 0 0-.591.592v7.154a.59.59 0 0 0 .591.591h7.151a.592.592 0 0 0 .592-.591v-2.19Z"/>
    </g>
  </g>
  <defs>
    <clipPath id="a">
      <path fill="#fff" d="M0 0h111.106v127.945H0z"/>
    </clipPath>
    <clipPath id="b">
      <path fill="#fff" d="M22.02 1.975h86.786v86.786H22.02z"/>
    </clipPath>
    <clipPath id="c">
      <path fill="#fff" d="M52.916 10.654h2.777v2.777h-2.777z"/>
    </clipPath>
    <clipPath id="d">
      <path fill="#fff" d="M55.693 10.654h2.777v2.777h-2.777z"/>
    </clipPath>
    <clipPath id="e">
      <path fill="#fff" d="M66.802 10.654h2.777v2.777h-2.777z"/>
    </clipPath>
    <clipPath id="f">
      <path fill="#fff" d="M69.58 10.654h2.777v2.777H69.58z"/>
    </clipPath>
    <clipPath id="g">
      <path fill="#fff" d="M75.133 10.654h2.777v2.777h-2.777z"/>
    </clipPath>
    <clipPath id="h">
      <path fill="#fff" d="M52.916 13.431h2.777v2.777h-2.777z"/>
    </clipPath>
    <clipPath id="i">
      <path fill="#fff" d="M55.693 13.431h2.777v2.777h-2.777z"/>
    </clipPath>
    <clipPath id="j">
      <path fill="#fff" d="M58.47 13.431h2.777v2.777H58.47z"/>
    </clipPath>
    <clipPath id="k">
      <path fill="#fff" d="M58.47 13.431h2.777v2.777H58.47z"/>
    </clipPath>
    <clipPath id="l">
      <path fill="#fff" d="M61.248 13.431h2.777v2.777h-2.777z"/>
    </clipPath>
    <clipPath id="m">
      <path fill="#fff" d="M64.025 13.431h2.777v2.777h-2.777z"/>
    </clipPath>
    <clipPath id="n">
      <path fill="#fff" d="M66.802 13.431h2.777v2.777h-2.777z"/>
    </clipPath>
    <clipPath id="o">
      <path fill="#fff" d="M69.58 13.431h2.777v2.777H69.58z"/>
    </clipPath>
    <clipPath id="p">
      <path fill="#fff" d="M52.916 16.208h2.777v2.777h-2.777z"/>
    </clipPath>
    <clipPath id="q">
      <path fill="#fff" d="M52.916 16.208h2.777v2.777h-2.777z"/>
    </clipPath>
    <clipPath id="r">
      <path fill="#fff" d="M55.693 16.208h2.777v2.777h-2.777z"/>
    </clipPath>
    <clipPath id="s">
      <path fill="#fff" d="M58.47 16.208h2.777v2.777H58.47z"/>
    </clipPath>
    <clipPath id="t">
      <path fill="#fff" d="M61.248 16.208h2.777v2.777h-2.777z"/>
    </clipPath>
    <clipPath id="u">
      <path fill="#fff" d="M64.025 16.208h2.777v2.777h-2.777z"/>
    </clipPath>
    <clipPath id="v">
      <path fill="#fff" d="M52.916 18.985h2.777v2.777h-2.777z"/>
    </clipPath>
    <clipPath id="w">
      <path fill="#fff" d="M55.693 18.985h2.777v2.777h-2.777z"/>
    </clipPath>
    <clipPath id="x">
      <path fill="#fff" d="M58.47 18.985h2.777v2.777H58.47z"/>
    </clipPath>
    <clipPath id="y">
      <path fill="#fff" d="M58.47 18.985h2.777v2.777H58.47z"/>
    </clipPath>
    <clipPath id="z">
      <path fill="#fff" d="M61.248 18.985h2.777v2.777h-2.777z"/>
    </clipPath>
    <clipPath id="A">
      <path fill="#fff" d="M66.802 18.985h2.777v2.777h-2.777z"/>
    </clipPath>
    <clipPath id="B">
      <path fill="#fff" d="M72.356 18.985h2.777v2.777h-2.777z"/>
    </clipPath>
    <clipPath id="C">
      <path fill="#fff" d="M75.133 18.985h2.777v2.777h-2.777z"/>
    </clipPath>
    <clipPath id="D">
      <path fill="#fff" d="M58.47 21.763h2.777v2.777H58.47z"/>
    </clipPath>
    <clipPath id="E">
      <path fill="#fff" d="M64.025 21.763h2.777v2.777h-2.777z"/>
    </clipPath>
    <clipPath id="F">
      <path fill="#fff" d="M69.58 21.763h2.777v2.777H69.58z"/>
    </clipPath>
    <clipPath id="G">
      <path fill="#fff" d="M72.356 21.763h2.777v2.777h-2.777z"/>
    </clipPath>
    <clipPath id="H">
      <path fill="#fff" d="M75.133 21.763h2.777v2.777h-2.777z"/>
    </clipPath>
    <clipPath id="I">
      <path fill="#fff" d="M52.916 24.54h2.777v2.777h-2.777z"/>
    </clipPath>
    <clipPath id="J">
      <path fill="#fff" d="M58.47 24.54h2.777v2.777H58.47z"/>
    </clipPath>
    <clipPath id="K">
      <path fill="#fff" d="M66.802 24.54h2.777v2.777h-2.777z"/>
    </clipPath>
    <clipPath id="L">
      <path fill="#fff" d="M69.58 24.54h2.777v2.777H69.58z"/>
    </clipPath>
    <clipPath id="M">
      <path fill="#fff" d="M72.356 24.54h2.777v2.777h-2.777z"/>
    </clipPath>
    <clipPath id="N">
      <path fill="#fff" d="M75.133 24.54h2.777v2.777h-2.777z"/>
    </clipPath>
    <clipPath id="O">
      <path fill="#fff" d="M52.916 27.317h2.777v2.777h-2.777z"/>
    </clipPath>
    <clipPath id="P">
      <path fill="#fff" d="M58.47 27.317h2.777v2.777H58.47z"/>
    </clipPath>
    <clipPath id="Q">
      <path fill="#fff" d="M64.025 27.317h2.777v2.777h-2.777z"/>
    </clipPath>
    <clipPath id="R">
      <path fill="#fff" d="M66.802 27.317h2.777v2.777h-2.777z"/>
    </clipPath>
    <clipPath id="S">
      <path fill="#fff" d="M69.58 27.317h2.777v2.777H69.58z"/>
    </clipPath>
    <clipPath id="T">
      <path fill="#fff" d="M72.356 27.317h2.777v2.777h-2.777z"/>
    </clipPath>
    <clipPath id="U">
      <path fill="#fff" d="M75.133 27.317h2.777v2.777h-2.777z"/>
    </clipPath>
    <clipPath id="V">
      <path fill="#fff" d="M64.025 30.094h2.777v2.777h-2.777z"/>
    </clipPath>
    <clipPath id="W">
      <path fill="#fff" d="M66.802 30.094h2.777v2.777h-2.777z"/>
    </clipPath>
    <clipPath id="X">
      <path fill="#fff" d="M75.133 30.094h2.777v2.777h-2.777z"/>
    </clipPath>
    <clipPath id="Y">
      <path fill="#fff" d="M30.699 32.871h2.777v2.777h-2.777z"/>
    </clipPath>
    <clipPath id="Z">
      <path fill="#fff" d="M33.476 32.871h2.777v2.777h-2.777z"/>
    </clipPath>
    <clipPath id="aa">
      <path fill="#fff" d="M36.253 32.871h2.777v2.777h-2.777z"/>
    </clipPath>
    <clipPath id="ab">
      <path fill="#fff" d="M39.03 32.871h2.777v2.777H39.03z"/>
    </clipPath>
    <clipPath id="ac">
      <path fill="#fff" d="M41.808 32.871h2.777v2.777h-2.777z"/>
    </clipPath>
    <clipPath id="ad">
      <path fill="#fff" d="M47.362 32.871h2.777v2.777h-2.777z"/>
    </clipPath>
    <clipPath id="ae">
      <path fill="#fff" d="M50.139 32.871h2.777v2.777h-2.777z"/>
    </clipPath>
    <clipPath id="af">
      <path fill="#fff" d="M52.916 32.871h2.777v2.777h-2.777z"/>
    </clipPath>
    <clipPath id="ag">
      <path fill="#fff" d="M55.693 32.871h2.777v2.777h-2.777z"/>
    </clipPath>
    <clipPath id="ah">
      <path fill="#fff" d="M58.47 32.871h2.777v2.777H58.47z"/>
    </clipPath>
    <clipPath id="ai">
      <path fill="#fff" d="M64.025 32.871h2.777v2.777h-2.777z"/>
    </clipPath>
    <clipPath id="aj">
      <path fill="#fff" d="M66.802 32.871h2.777v2.777h-2.777z"/>
    </clipPath>
    <clipPath id="ak">
      <path fill="#fff" d="M69.58 32.871h2.777v2.777H69.58z"/>
    </clipPath>
    <clipPath id="al">
      <path fill="#fff" d="M72.356 32.871h2.777v2.777h-2.777z"/>
    </clipPath>
    <clipPath id="am">
      <path fill="#fff" d="M75.133 32.871h2.777v2.777h-2.777z"/>
    </clipPath>
    <clipPath id="an">
      <path fill="#fff" d="M75.133 32.871h2.777v2.777h-2.777z"/>
    </clipPath>
    <clipPath id="ao">
      <path fill="#fff" d="M77.91 32.871h2.777v2.777H77.91z"/>
    </clipPath>
    <clipPath id="ap">
      <path fill="#fff" d="M83.465 32.871h2.777v2.777h-2.777z"/>
    </clipPath>
    <clipPath id="aq">
      <path fill="#fff" d="M86.242 32.871h2.777v2.777h-2.777z"/>
    </clipPath>
    <clipPath id="ar">
      <path fill="#fff" d="M89.02 32.871h2.777v2.777H89.02z"/>
    </clipPath>
    <clipPath id="as">
      <path fill="#fff" d="M94.574 32.871h2.777v2.777h-2.777z"/>
    </clipPath>
    <clipPath id="at">
      <path fill="#fff" d="M30.699 35.648h2.777v2.777h-2.777z"/>
    </clipPath>
    <clipPath id="au">
      <path fill="#fff" d="M33.476 35.648h2.777v2.777h-2.777z"/>
    </clipPath>
    <clipPath id="av">
      <path fill="#fff" d="M36.253 35.648h2.777v2.777h-2.777z"/>
    </clipPath>
    <clipPath id="aw">
      <path fill="#fff" d="M36.253 35.648h2.777v2.777h-2.777z"/>
    </clipPath>
    <clipPath id="ax">
      <path fill="#fff" d="M36.253 35.648h2.777v2.777h-2.777z"/>
    </clipPath>
    <clipPath id="ay">
      <path fill="#fff" d="M39.03 35.648h2.777v2.777H39.03z"/>
    </clipPath>
    <clipPath id="az">
      <path fill="#fff" d="M41.808 35.648h2.777v2.777h-2.777z"/>
    </clipPath>
    <clipPath id="aA">
      <path fill="#fff" d="M44.585 35.648h2.777v2.777h-2.777z"/>
    </clipPath>
    <clipPath id="aB">
      <path fill="#fff" d="M52.916 35.648h2.777v2.777h-2.777z"/>
    </clipPath>
    <clipPath id="aC">
      <path fill="#fff" d="M52.916 35.648h2.777v2.777h-2.777z"/>
    </clipPath>
    <clipPath id="aD">
      <path fill="#fff" d="M55.693 35.648h2.777v2.777h-2.777z"/>
    </clipPath>
    <clipPath id="aE">
      <path fill="#fff" d="M58.47 35.648h2.777v2.777H58.47z"/>
    </clipPath>
    <clipPath id="aF">
      <path fill="#fff" d="M69.58 35.648h2.777v2.777H69.58z"/>
    </clipPath>
    <clipPath id="aG">
      <path fill="#fff" d="M72.356 35.648h2.777v2.777h-2.777z"/>
    </clipPath>
    <clipPath id="aH">
      <path fill="#fff" d="M75.133 35.648h2.777v2.777h-2.777z"/>
    </clipPath>
    <clipPath id="aI">
      <path fill="#fff" d="M77.91 35.648h2.777v2.777H77.91z"/>
    </clipPath>
    <clipPath id="aJ">
      <path fill="#fff" d="M80.688 35.648h2.777v2.777h-2.777z"/>
    </clipPath>
    <clipPath id="aK">
      <path fill="#fff" d="M83.465 35.648h2.777v2.777h-2.777z"/>
    </clipPath>
    <clipPath id="aL">
      <path fill="#fff" d="M86.242 35.648h2.777v2.777h-2.777z"/>
    </clipPath>
    <clipPath id="aM">
      <path fill="#fff" d="M97.35 35.648h2.777v2.777H97.35z"/>
    </clipPath>
    <clipPath id="aN">
      <path fill="#fff" d="M30.699 38.426h2.777v2.777h-2.777z"/>
    </clipPath>
    <clipPath id="aO">
      <path fill="#fff" d="M33.476 38.426h2.777v2.777h-2.777z"/>
    </clipPath>
    <clipPath id="aP">
      <path fill="#fff" d="M33.476 38.426h2.777v2.777h-2.777z"/>
    </clipPath>
    <clipPath id="aQ">
      <path fill="#fff" d="M36.253 38.426h2.777v2.777h-2.777z"/>
    </clipPath>
    <clipPath id="aR">
      <path fill="#fff" d="M39.03 38.426h2.777v2.777H39.03z"/>
    </clipPath>
    <clipPath id="aS">
      <path fill="#fff" d="M41.808 38.426h2.777v2.777h-2.777z"/>
    </clipPath>
    <clipPath id="aT">
      <path fill="#fff" d="M44.585 38.426h2.777v2.777h-2.777z"/>
    </clipPath>
    <clipPath id="aU">
      <path fill="#fff" d="M47.362 38.426h2.777v2.777h-2.777z"/>
    </clipPath>
    <clipPath id="aV">
      <path fill="#fff" d="M52.916 38.426h2.777v2.777h-2.777z"/>
    </clipPath>
    <clipPath id="aW">
      <path fill="#fff" d="M55.693 38.426h2.777v2.777h-2.777z"/>
    </clipPath>
    <clipPath id="aX">
      <path fill="#fff" d="M58.47 38.426h2.777v2.777H58.47z"/>
    </clipPath>
    <clipPath id="aY">
      <path fill="#fff" d="M58.47 38.426h2.777v2.777H58.47z"/>
    </clipPath>
    <clipPath id="aZ">
      <path fill="#fff" d="M61.248 38.426h2.777v2.777h-2.777z"/>
    </clipPath>
    <clipPath id="ba">
      <path fill="#fff" d="M64.025 38.426h2.777v2.777h-2.777z"/>
    </clipPath>
    <clipPath id="bb">
      <path fill="#fff" d="M66.802 38.426h2.777v2.777h-2.777z"/>
    </clipPath>
    <clipPath id="bc">
      <path fill="#fff" d="M72.356 38.426h2.777v2.777h-2.777z"/>
    </clipPath>
    <clipPath id="bd">
      <path fill="#fff" d="M75.133 38.426h2.777v2.777h-2.777z"/>
    </clipPath>
    <clipPath id="be">
      <path fill="#fff" d="M75.133 38.426h2.777v2.777h-2.777z"/>
    </clipPath>
    <clipPath id="bf">
      <path fill="#fff" d="M75.133 38.426h2.777v2.777h-2.777z"/>
    </clipPath>
    <clipPath id="bg">
      <path fill="#fff" d="M77.91 38.426h2.777v2.777H77.91z"/>
    </clipPath>
    <clipPath id="bh">
      <path fill="#fff" d="M80.688 38.426h2.777v2.777h-2.777z"/>
    </clipPath>
    <clipPath id="bi">
      <path fill="#fff" d="M83.465 38.426h2.777v2.777h-2.777z"/>
    </clipPath>
    <clipPath id="bj">
      <path fill="#fff" d="M86.242 38.426h2.777v2.777h-2.777z"/>
    </clipPath>
    <clipPath id="bk">
      <path fill="#fff" d="M91.796 38.426h2.777v2.777h-2.777z"/>
    </clipPath>
    <clipPath id="bl">
      <path fill="#fff" d="M30.699 41.203h2.777v2.777h-2.777z"/>
    </clipPath>
    <clipPath id="bm">
      <path fill="#fff" d="M33.476 41.203h2.777v2.777h-2.777z"/>
    </clipPath>
    <clipPath id="bn">
      <path fill="#fff" d="M39.03 41.203h2.777v2.777H39.03z"/>
    </clipPath>
    <clipPath id="bo">
      <path fill="#fff" d="M41.808 41.203h2.777v2.777h-2.777z"/>
    </clipPath>
    <clipPath id="bp">
      <path fill="#fff" d="M44.585 41.203h2.777v2.777h-2.777z"/>
    </clipPath>
    <clipPath id="bq">
      <path fill="#fff" d="M50.139 41.203h2.777v2.777h-2.777z"/>
    </clipPath>
    <clipPath id="br">
      <path fill="#fff" d="M52.916 41.203h2.777v2.777h-2.777z"/>
    </clipPath>
    <clipPath id="bs">
      <path fill="#fff" d="M55.693 41.203h2.777v2.777h-2.777z"/>
    </clipPath>
    <clipPath id="bt">
      <path fill="#fff" d="M58.47 41.203h2.777v2.777H58.47z"/>
    </clipPath>
    <clipPath id="bu">
      <path fill="#fff" d="M61.248 41.203h2.777v2.777h-2.777z"/>
    </clipPath>
    <clipPath id="bv">
      <path fill="#fff" d="M64.025 41.203h2.777v2.777h-2.777z"/>
    </clipPath>
    <clipPath id="bw">
      <path fill="#fff" d="M69.58 41.203h2.777v2.777H69.58z"/>
    </clipPath>
    <clipPath id="bx">
      <path fill="#fff" d="M72.356 41.203h2.777v2.777h-2.777z"/>
    </clipPath>
    <clipPath id="by">
      <path fill="#fff" d="M75.133 41.203h2.777v2.777h-2.777z"/>
    </clipPath>
    <clipPath id="bz">
      <path fill="#fff" d="M77.91 41.203h2.777v2.777H77.91z"/>
    </clipPath>
    <clipPath id="bA">
      <path fill="#fff" d="M80.688 41.203h2.777v2.777h-2.777z"/>
    </clipPath>
    <clipPath id="bB">
      <path fill="#fff" d="M36.253 43.98h2.777v2.777h-2.777z"/>
    </clipPath>
    <clipPath id="bC">
      <path fill="#fff" d="M39.03 43.98h2.777v2.777H39.03z"/>
    </clipPath>
    <clipPath id="bD">
      <path fill="#fff" d="M44.585 43.98h2.777v2.777h-2.777z"/>
    </clipPath>
    <clipPath id="bE">
      <path fill="#fff" d="M47.362 43.98h2.777v2.777h-2.777z"/>
    </clipPath>
    <clipPath id="bF">
      <path fill="#fff" d="M55.693 43.98h2.777v2.777h-2.777z"/>
    </clipPath>
    <clipPath id="bG">
      <path fill="#fff" d="M58.47 43.98h2.777v2.777H58.47z"/>
    </clipPath>
    <clipPath id="bH">
      <path fill="#fff" d="M58.47 43.98h2.777v2.777H58.47z"/>
    </clipPath>
    <clipPath id="bI">
      <path fill="#fff" d="M58.47 43.98h2.777v2.777H58.47z"/>
    </clipPath>
    <clipPath id="bJ">
      <path fill="#fff" d="M61.248 43.98h2.777v2.777h-2.777z"/>
    </clipPath>
    <clipPath id="bK">
      <path fill="#fff" d="M69.58 43.98h2.777v2.777H69.58z"/>
    </clipPath>
    <clipPath id="bL">
      <path fill="#fff" d="M72.356 43.98h2.777v2.777h-2.777z"/>
    </clipPath>
    <clipPath id="bM">
      <path fill="#fff" d="M77.91 43.98h2.777v2.777H77.91z"/>
    </clipPath>
    <clipPath id="bN">
      <path fill="#fff" d="M80.688 43.98h2.777v2.777h-2.777z"/>
    </clipPath>
    <clipPath id="bO">
      <path fill="#fff" d="M83.465 43.98h2.777v2.777h-2.777z"/>
    </clipPath>
    <clipPath id="bP">
      <path fill="#fff" d="M86.242 43.98h2.777v2.777h-2.777z"/>
    </clipPath>
    <clipPath id="bQ">
      <path fill="#fff" d="M89.02 43.98h2.777v2.777H89.02z"/>
    </clipPath>
    <clipPath id="bR">
      <path fill="#fff" d="M94.574 43.98h2.777v2.777h-2.777z"/>
    </clipPath>
    <clipPath id="bS">
      <path fill="#fff" d="M97.35 43.98h2.777v2.777H97.35z"/>
    </clipPath>
    <clipPath id="bT">
      <path fill="#fff" d="M30.699 46.757h2.777v2.777h-2.777z"/>
    </clipPath>
    <clipPath id="bU">
      <path fill="#fff" d="M36.253 46.757h2.777v2.777h-2.777z"/>
    </clipPath>
    <clipPath id="bV">
      <path fill="#fff" d="M36.253 46.757h2.777v2.777h-2.777z"/>
    </clipPath>
    <clipPath id="bW">
      <path fill="#fff" d="M39.03 46.757h2.777v2.777H39.03z"/>
    </clipPath>
    <clipPath id="bX">
      <path fill="#fff" d="M55.693 46.757h2.777v2.777h-2.777z"/>
    </clipPath>
    <clipPath id="bY">
      <path fill="#fff" d="M58.47 46.757h2.777v2.777H58.47z"/>
    </clipPath>
    <clipPath id="bZ">
      <path fill="#fff" d="M64.025 46.757h2.777v2.777h-2.777z"/>
    </clipPath>
    <clipPath id="ca">
      <path fill="#fff" d="M66.802 46.757h2.777v2.777h-2.777z"/>
    </clipPath>
    <clipPath id="cb">
      <path fill="#fff" d="M69.58 46.757h2.777v2.777H69.58z"/>
    </clipPath>
    <clipPath id="cc">
      <path fill="#fff" d="M72.356 46.757h2.777v2.777h-2.777z"/>
    </clipPath>
    <clipPath id="cd">
      <path fill="#fff" d="M75.133 46.757h2.777v2.777h-2.777z"/>
    </clipPath>
    <clipPath id="ce">
      <path fill="#fff" d="M77.91 46.757h2.777v2.777H77.91z"/>
    </clipPath>
    <clipPath id="cf">
      <path fill="#fff" d="M80.688 46.757h2.777v2.777h-2.777z"/>
    </clipPath>
    <clipPath id="cg">
      <path fill="#fff" d="M83.465 46.757h2.777v2.777h-2.777z"/>
    </clipPath>
    <clipPath id="ch">
      <path fill="#fff" d="M86.242 46.757h2.777v2.777h-2.777z"/>
    </clipPath>
    <clipPath id="ci">
      <path fill="#fff" d="M89.02 46.757h2.777v2.777H89.02z"/>
    </clipPath>
    <clipPath id="cj">
      <path fill="#fff" d="M30.699 49.534h2.777v2.777h-2.777z"/>
    </clipPath>
    <clipPath id="ck">
      <path fill="#fff" d="M36.253 49.534h2.777v2.777h-2.777z"/>
    </clipPath>
    <clipPath id="cl">
      <path fill="#fff" d="M39.03 49.534h2.777v2.777H39.03z"/>
    </clipPath>
    <clipPath id="cm">
      <path fill="#fff" d="M41.808 49.534h2.777v2.777h-2.777z"/>
    </clipPath>
    <clipPath id="cn">
      <path fill="#fff" d="M44.585 49.534h2.777v2.777h-2.777z"/>
    </clipPath>
    <clipPath id="co">
      <path fill="#fff" d="M47.362 49.534h2.777v2.777h-2.777z"/>
    </clipPath>
    <clipPath id="cp">
      <path fill="#fff" d="M50.139 49.534h2.777v2.777h-2.777z"/>
    </clipPath>
    <clipPath id="cq">
      <path fill="#fff" d="M55.693 49.534h2.777v2.777h-2.777z"/>
    </clipPath>
    <clipPath id="cr">
      <path fill="#fff" d="M58.47 49.534h2.777v2.777H58.47z"/>
    </clipPath>
    <clipPath id="cs">
      <path fill="#fff" d="M58.47 49.534h2.777v2.777H58.47z"/>
    </clipPath>
    <clipPath id="ct">
      <path fill="#fff" d="M66.802 49.534h2.777v2.777h-2.777z"/>
    </clipPath>
    <clipPath id="cu">
      <path fill="#fff" d="M69.58 49.534h2.777v2.777H69.58z"/>
    </clipPath>
    <clipPath id="cv">
      <path fill="#fff" d="M75.133 49.534h2.777v2.777h-2.777z"/>
    </clipPath>
    <clipPath id="cw">
      <path fill="#fff" d="M77.91 49.534h2.777v2.777H77.91z"/>
    </clipPath>
    <clipPath id="cx">
      <path fill="#fff" d="M80.688 49.534h2.777v2.777h-2.777z"/>
    </clipPath>
    <clipPath id="cy">
      <path fill="#fff" d="M83.465 49.534h2.777v2.777h-2.777z"/>
    </clipPath>
    <clipPath id="cz">
      <path fill="#fff" d="M83.465 49.534h2.777v2.777h-2.777z"/>
    </clipPath>
    <clipPath id="cA">
      <path fill="#fff" d="M86.242 49.534h2.777v2.777h-2.777z"/>
    </clipPath>
    <clipPath id="cB">
      <path fill="#fff" d="M91.796 49.534h2.777v2.777h-2.777z"/>
    </clipPath>
    <clipPath id="cC">
      <path fill="#fff" d="M94.574 49.534h2.777v2.777h-2.777z"/>
    </clipPath>
    <clipPath id="cD">
      <path fill="#fff" d="M97.35 49.534h2.777v2.777H97.35z"/>
    </clipPath>
    <clipPath id="cE">
      <path fill="#fff" d="M30.699 52.311h2.777v2.777h-2.777z"/>
    </clipPath>
    <clipPath id="cF">
      <path fill="#fff" d="M36.253 52.311h2.777v2.777h-2.777z"/>
    </clipPath>
    <clipPath id="cG">
      <path fill="#fff" d="M39.03 52.311h2.777v2.777H39.03z"/>
    </clipPath>
    <clipPath id="cH">
      <path fill="#fff" d="M41.808 52.311h2.777v2.777h-2.777z"/>
    </clipPath>
    <clipPath id="cI">
      <path fill="#fff" d="M44.585 52.311h2.777v2.777h-2.777z"/>
    </clipPath>
    <clipPath id="cJ">
      <path fill="#fff" d="M47.362 52.311h2.777v2.777h-2.777z"/>
    </clipPath>
    <clipPath id="cK">
      <path fill="#fff" d="M47.362 52.311h2.777v2.777h-2.777z"/>
    </clipPath>
    <clipPath id="cL">
      <path fill="#fff" d="M47.362 52.311h2.777v2.777h-2.777z"/>
    </clipPath>
    <clipPath id="cM">
      <path fill="#fff" d="M47.362 52.311h2.777v2.777h-2.777z"/>
    </clipPath>
    <clipPath id="cN">
      <path fill="#fff" d="M50.139 52.311h2.777v2.777h-2.777z"/>
    </clipPath>
    <clipPath id="cO">
      <path fill="#fff" d="M55.693 52.311h2.777v2.777h-2.777z"/>
    </clipPath>
    <clipPath id="cP">
      <path fill="#fff" d="M58.47 52.311h2.777v2.777H58.47z"/>
    </clipPath>
    <clipPath id="cQ">
      <path fill="#fff" d="M64.025 52.311h2.777v2.777h-2.777z"/>
    </clipPath>
    <clipPath id="cR">
      <path fill="#fff" d="M66.802 52.311h2.777v2.777h-2.777z"/>
    </clipPath>
    <clipPath id="cS">
      <path fill="#fff" d="M75.133 52.311h2.777v2.777h-2.777z"/>
    </clipPath>
    <clipPath id="cT">
      <path fill="#fff" d="M77.91 52.311h2.777v2.777H77.91z"/>
    </clipPath>
    <clipPath id="cU">
      <path fill="#fff" d="M80.688 52.311h2.777v2.777h-2.777z"/>
    </clipPath>
    <clipPath id="cV">
      <path fill="#fff" d="M80.688 52.311h2.777v2.777h-2.777z"/>
    </clipPath>
    <clipPath id="cW">
      <path fill="#fff" d="M91.796 52.311h2.777v2.777h-2.777z"/>
    </clipPath>
    <clipPath id="cX">
      <path fill="#fff" d="M94.574 52.311h2.777v2.777h-2.777z"/>
    </clipPath>
    <clipPath id="cY">
      <path fill="#fff" d="M97.35 52.311h2.777v2.777H97.35z"/>
    </clipPath>
    <clipPath id="cZ">
      <path fill="#fff" d="M30.699 55.089h2.777v2.777h-2.777z"/>
    </clipPath>
    <clipPath id="da">
      <path fill="#fff" d="M41.808 55.089h2.777v2.777h-2.777z"/>
    </clipPath>
    <clipPath id="db">
      <path fill="#fff" d="M44.585 55.089h2.777v2.777h-2.777z"/>
    </clipPath>
    <clipPath id="dc">
      <path fill="#fff" d="M47.362 55.089h2.777v2.777h-2.777z"/>
    </clipPath>
    <clipPath id="dd">
      <path fill="#fff" d="M50.139 55.089h2.777v2.777h-2.777z"/>
    </clipPath>
    <clipPath id="de">
      <path fill="#fff" d="M52.916 55.089h2.777v2.777h-2.777z"/>
    </clipPath>
    <clipPath id="df">
      <path fill="#fff" d="M55.693 55.089h2.777v2.777h-2.777z"/>
    </clipPath>
    <clipPath id="dg">
      <path fill="#fff" d="M58.47 55.089h2.777v2.777H58.47z"/>
    </clipPath>
    <clipPath id="dh">
      <path fill="#fff" d="M64.025 55.089h2.777v2.777h-2.777z"/>
    </clipPath>
    <clipPath id="di">
      <path fill="#fff" d="M66.802 55.089h2.777v2.777h-2.777z"/>
    </clipPath>
    <clipPath id="dj">
      <path fill="#fff" d="M72.356 55.089h2.777v2.777h-2.777z"/>
    </clipPath>
    <clipPath id="dk">
      <path fill="#fff" d="M75.133 55.089h2.777v2.777h-2.777z"/>
    </clipPath>
    <clipPath id="dl">
      <path fill="#fff" d="M77.91 55.089h2.777v2.777H77.91z"/>
    </clipPath>
    <clipPath id="dm">
      <path fill="#fff" d="M80.688 55.089h2.777v2.777h-2.777z"/>
    </clipPath>
    <clipPath id="dn">
      <path fill="#fff" d="M83.465 55.089h2.777v2.777h-2.777z"/>
    </clipPath>
    <clipPath id="do">
      <path fill="#fff" d="M86.242 55.089h2.777v2.777h-2.777z"/>
    </clipPath>
    <clipPath id="dp">
      <path fill="#fff" d="M89.02 55.089h2.777v2.777H89.02z"/>
    </clipPath>
    <clipPath id="dq">
      <path fill="#fff" d="M94.574 55.089h2.777v2.777h-2.777z"/>
    </clipPath>
    <clipPath id="dr">
      <path fill="#fff" d="M97.35 55.089h2.777v2.777H97.35z"/>
    </clipPath>
    <clipPath id="ds">
      <path fill="#fff" d="M52.916 57.866h2.777v2.777h-2.777z"/>
    </clipPath>
    <clipPath id="dt">
      <path fill="#fff" d="M55.693 57.866h2.777v2.777h-2.777z"/>
    </clipPath>
    <clipPath id="du">
      <path fill="#fff" d="M66.802 57.866h2.777v2.777h-2.777z"/>
    </clipPath>
    <clipPath id="dv">
      <path fill="#fff" d="M69.58 57.866h2.777v2.777H69.58z"/>
    </clipPath>
    <clipPath id="dw">
      <path fill="#fff" d="M72.356 57.866h2.777v2.777h-2.777z"/>
    </clipPath>
    <clipPath id="dx">
      <path fill="#fff" d="M75.133 57.866h2.777v2.777h-2.777z"/>
    </clipPath>
    <clipPath id="dy">
      <path fill="#fff" d="M77.91 57.866h2.777v2.777H77.91z"/>
    </clipPath>
    <clipPath id="dz">
      <path fill="#fff" d="M83.465 57.866h2.777v2.777h-2.777z"/>
    </clipPath>
    <clipPath id="dA">
      <path fill="#fff" d="M86.242 57.866h2.777v2.777h-2.777z"/>
    </clipPath>
    <clipPath id="dB">
      <path fill="#fff" d="M89.02 57.866h2.777v2.777H89.02z"/>
    </clipPath>
    <clipPath id="dC">
      <path fill="#fff" d="M94.574 57.866h2.777v2.777h-2.777z"/>
    </clipPath>
    <clipPath id="dD">
      <path fill="#fff" d="M97.35 57.866h2.777v2.777H97.35z"/>
    </clipPath>
    <clipPath id="dE">
      <path fill="#fff" d="M52.916 60.643h2.777v2.777h-2.777z"/>
    </clipPath>
    <clipPath id="dF">
      <path fill="#fff" d="M55.693 60.643h2.777v2.777h-2.777z"/>
    </clipPath>
    <clipPath id="dG">
      <path fill="#fff" d="M58.47 60.643h2.777v2.777H58.47z"/>
    </clipPath>
    <clipPath id="dH">
      <path fill="#fff" d="M58.47 60.643h2.777v2.777H58.47z"/>
    </clipPath>
    <clipPath id="dI">
      <path fill="#fff" d="M61.248 60.643h2.777v2.777h-2.777z"/>
    </clipPath>
    <clipPath id="dJ">
      <path fill="#fff" d="M64.025 60.643h2.777v2.777h-2.777z"/>
    </clipPath>
    <clipPath id="dK">
      <path fill="#fff" d="M66.802 60.643h2.777v2.777h-2.777z"/>
    </clipPath>
    <clipPath id="dL">
      <path fill="#fff" d="M69.58 60.643h2.777v2.777H69.58z"/>
    </clipPath>
    <clipPath id="dM">
      <path fill="#fff" d="M75.133 60.643h2.777v2.777h-2.777z"/>
    </clipPath>
    <clipPath id="dN">
      <path fill="#fff" d="M80.688 60.643h2.777v2.777h-2.777z"/>
    </clipPath>
    <clipPath id="dO">
      <path fill="#fff" d="M86.242 60.643h2.777v2.777h-2.777z"/>
    </clipPath>
    <clipPath id="dP">
      <path fill="#fff" d="M89.02 60.643h2.777v2.777H89.02z"/>
    </clipPath>
    <clipPath id="dQ">
      <path fill="#fff" d="M91.796 60.643h2.777v2.777h-2.777z"/>
    </clipPath>
    <clipPath id="dR">
      <path fill="#fff" d="M94.574 60.643h2.777v2.777h-2.777z"/>
    </clipPath>
    <clipPath id="dS">
      <path fill="#fff" d="M97.35 60.643h2.777v2.777H97.35z"/>
    </clipPath>
    <clipPath id="dT">
      <path fill="#fff" d="M52.916 63.42h2.777v2.777h-2.777z"/>
    </clipPath>
    <clipPath id="dU">
      <path fill="#fff" d="M55.693 63.42h2.777v2.777h-2.777z"/>
    </clipPath>
    <clipPath id="dV">
      <path fill="#fff" d="M58.47 63.42h2.777v2.777H58.47z"/>
    </clipPath>
    <clipPath id="dW">
      <path fill="#fff" d="M61.248 63.42h2.777v2.777h-2.777z"/>
    </clipPath>
    <clipPath id="dX">
      <path fill="#fff" d="M64.025 63.42h2.777v2.777h-2.777z"/>
    </clipPath>
    <clipPath id="dY">
      <path fill="#fff" d="M64.025 63.42h2.777v2.777h-2.777z"/>
    </clipPath>
    <clipPath id="dZ">
      <path fill="#fff" d="M64.025 63.42h2.777v2.777h-2.777z"/>
    </clipPath>
    <clipPath id="ea">
      <path fill="#fff" d="M66.802 63.42h2.777v2.777h-2.777z"/>
    </clipPath>
    <clipPath id="eb">
      <path fill="#fff" d="M69.58 63.42h2.777v2.777H69.58z"/>
    </clipPath>
    <clipPath id="ec">
      <path fill="#fff" d="M75.133 63.42h2.777v2.777h-2.777z"/>
    </clipPath>
    <clipPath id="ed">
      <path fill="#fff" d="M77.91 63.42h2.777v2.777H77.91z"/>
    </clipPath>
    <clipPath id="ee">
      <path fill="#fff" d="M83.465 63.42h2.777v2.777h-2.777z"/>
    </clipPath>
    <clipPath id="ef">
      <path fill="#fff" d="M86.242 63.42h2.777v2.777h-2.777z"/>
    </clipPath>
    <clipPath id="eg">
      <path fill="#fff" d="M89.02 63.42h2.777v2.777H89.02z"/>
    </clipPath>
    <clipPath id="eh">
      <path fill="#fff" d="M52.916 66.197h2.777v2.777h-2.777z"/>
    </clipPath>
    <clipPath id="ei">
      <path fill="#fff" d="M55.693 66.197h2.777v2.777h-2.777z"/>
    </clipPath>
    <clipPath id="ej">
      <path fill="#fff" d="M58.47 66.197h2.777v2.777H58.47z"/>
    </clipPath>
    <clipPath id="ek">
      <path fill="#fff" d="M61.248 66.197h2.777v2.777h-2.777z"/>
    </clipPath>
    <clipPath id="el">
      <path fill="#fff" d="M64.025 66.197h2.777v2.777h-2.777z"/>
    </clipPath>
    <clipPath id="em">
      <path fill="#fff" d="M72.356 66.197h2.777v2.777h-2.777z"/>
    </clipPath>
    <clipPath id="en">
      <path fill="#fff" d="M75.133 66.197h2.777v2.777h-2.777z"/>
    </clipPath>
    <clipPath id="eo">
      <path fill="#fff" d="M77.91 66.197h2.777v2.777H77.91z"/>
    </clipPath>
    <clipPath id="ep">
      <path fill="#fff" d="M80.688 66.197h2.777v2.777h-2.777z"/>
    </clipPath>
    <clipPath id="eq">
      <path fill="#fff" d="M83.465 66.197h2.777v2.777h-2.777z"/>
    </clipPath>
    <clipPath id="er">
      <path fill="#fff" d="M86.242 66.197h2.777v2.777h-2.777z"/>
    </clipPath>
    <clipPath id="es">
      <path fill="#fff" d="M89.02 66.197h2.777v2.777H89.02z"/>
    </clipPath>
    <clipPath id="et">
      <path fill="#fff" d="M52.916 68.974h2.777v2.777h-2.777z"/>
    </clipPath>
    <clipPath id="eu">
      <path fill="#fff" d="M55.693 68.974h2.777v2.777h-2.777z"/>
    </clipPath>
    <clipPath id="ev">
      <path fill="#fff" d="M58.47 68.974h2.777v2.777H58.47z"/>
    </clipPath>
    <clipPath id="ew">
      <path fill="#fff" d="M61.248 68.974h2.777v2.777h-2.777z"/>
    </clipPath>
    <clipPath id="ex">
      <path fill="#fff" d="M64.025 68.974h2.777v2.777h-2.777z"/>
    </clipPath>
    <clipPath id="ey">
      <path fill="#fff" d="M69.58 68.974h2.777v2.777H69.58z"/>
    </clipPath>
    <clipPath id="ez">
      <path fill="#fff" d="M72.356 68.974h2.777v2.777h-2.777z"/>
    </clipPath>
    <clipPath id="eA">
      <path fill="#fff" d="M75.133 68.974h2.777v2.777h-2.777z"/>
    </clipPath>
    <clipPath id="eB">
      <path fill="#fff" d="M77.91 68.974h2.777v2.777H77.91z"/>
    </clipPath>
    <clipPath id="eC">
      <path fill="#fff" d="M77.91 68.974h2.777v2.777H77.91z"/>
    </clipPath>
    <clipPath id="eD">
      <path fill="#fff" d="M80.688 68.974h2.777v2.777h-2.777z"/>
    </clipPath>
    <clipPath id="eE">
      <path fill="#fff" d="M83.465 68.974h2.777v2.777h-2.777z"/>
    </clipPath>
    <clipPath id="eF">
      <path fill="#fff" d="M83.465 68.974h2.777v2.777h-2.777z"/>
    </clipPath>
    <clipPath id="eG">
      <path fill="#fff" d="M86.242 68.974h2.777v2.777h-2.777z"/>
    </clipPath>
    <clipPath id="eH">
      <path fill="#fff" d="M89.02 68.974h2.777v2.777H89.02z"/>
    </clipPath>
    <clipPath id="eI">
      <path fill="#fff" d="M94.574 68.974h2.777v2.777h-2.777z"/>
    </clipPath>
    <clipPath id="eJ">
      <path fill="#fff" d="M97.35 68.974h2.777v2.777H97.35z"/>
    </clipPath>
    <clipPath id="eK">
      <path fill="#fff" d="M52.916 71.751h2.777v2.777h-2.777z"/>
    </clipPath>
    <clipPath id="eL">
      <path fill="#fff" d="M55.693 71.751h2.777v2.777h-2.777z"/>
    </clipPath>
    <clipPath id="eM">
      <path fill="#fff" d="M55.693 71.751h2.777v2.777h-2.777z"/>
    </clipPath>
    <clipPath id="eN">
      <path fill="#fff" d="M58.47 71.751h2.777v2.777H58.47z"/>
    </clipPath>
    <clipPath id="eO">
      <path fill="#fff" d="M64.025 71.751h2.777v2.777h-2.777z"/>
    </clipPath>
    <clipPath id="eP">
      <path fill="#fff" d="M69.58 71.751h2.777v2.777H69.58z"/>
    </clipPath>
    <clipPath id="eQ">
      <path fill="#fff" d="M72.356 71.751h2.777v2.777h-2.777z"/>
    </clipPath>
    <clipPath id="eR">
      <path fill="#fff" d="M83.465 71.751h2.777v2.777h-2.777z"/>
    </clipPath>
    <clipPath id="eS">
      <path fill="#fff" d="M86.242 71.751h2.777v2.777h-2.777z"/>
    </clipPath>
    <clipPath id="eT">
      <path fill="#fff" d="M89.02 71.751h2.777v2.777H89.02z"/>
    </clipPath>
    <clipPath id="eU">
      <path fill="#fff" d="M91.796 71.751h2.777v2.777h-2.777z"/>
    </clipPath>
    <clipPath id="eV">
      <path fill="#fff" d="M94.574 71.751h2.777v2.777h-2.777z"/>
    </clipPath>
    <clipPath id="eW">
      <path fill="#fff" d="M97.35 71.751h2.777v2.777H97.35z"/>
    </clipPath>
    <clipPath id="eX">
      <path fill="#fff" d="M52.916 74.529h2.777v2.777h-2.777z"/>
    </clipPath>
    <clipPath id="eY">
      <path fill="#fff" d="M55.693 74.529h2.777v2.777h-2.777z"/>
    </clipPath>
    <clipPath id="eZ">
      <path fill="#fff" d="M55.693 74.529h2.777v2.777h-2.777z"/>
    </clipPath>
    <clipPath id="fa">
      <path fill="#fff" d="M58.47 74.529h2.777v2.777H58.47z"/>
    </clipPath>
    <clipPath id="fb">
      <path fill="#fff" d="M64.025 74.529h2.777v2.777h-2.777z"/>
    </clipPath>
    <clipPath id="fc">
      <path fill="#fff" d="M75.133 74.529h2.777v2.777h-2.777z"/>
    </clipPath>
    <clipPath id="fd">
      <path fill="#fff" d="M77.91 74.529h2.777v2.777H77.91z"/>
    </clipPath>
    <clipPath id="fe">
      <path fill="#fff" d="M80.688 74.529h2.777v2.777h-2.777z"/>
    </clipPath>
    <clipPath id="ff">
      <path fill="#fff" d="M83.465 74.529h2.777v2.777h-2.777z"/>
    </clipPath>
    <clipPath id="fg">
      <path fill="#fff" d="M86.242 74.529h2.777v2.777h-2.777z"/>
    </clipPath>
    <clipPath id="fh">
      <path fill="#fff" d="M89.02 74.529h2.777v2.777H89.02z"/>
    </clipPath>
    <clipPath id="fi">
      <path fill="#fff" d="M91.796 74.529h2.777v2.777h-2.777z"/>
    </clipPath>
    <clipPath id="fj">
      <path fill="#fff" d="M94.574 74.529h2.777v2.777h-2.777z"/>
    </clipPath>
    <clipPath id="fk">
      <path fill="#fff" d="M97.35 74.529h2.777v2.777H97.35z"/>
    </clipPath>
    <clipPath id="fl">
      <path fill="#fff" d="M52.916 77.306h2.777v2.777h-2.777z"/>
    </clipPath>
    <clipPath id="fm">
      <path fill="#fff" d="M55.693 77.306h2.777v2.777h-2.777z"/>
    </clipPath>
    <clipPath id="fn">
      <path fill="#fff" d="M58.47 77.306h2.777v2.777H58.47z"/>
    </clipPath>
    <clipPath id="fo">
      <path fill="#fff" d="M66.802 77.306h2.777v2.777h-2.777z"/>
    </clipPath>
    <clipPath id="fp">
      <path fill="#fff" d="M72.356 77.306h2.777v2.777h-2.777z"/>
    </clipPath>
    <clipPath id="fq">
      <path fill="#fff" d="M91.796 77.306h2.777v2.777h-2.777z"/>
    </clipPath>
    <clipPath id="fr">
      <path fill="#fff" d="M94.574 77.306h2.777v2.777h-2.777z"/>
    </clipPath>
    <clipPath id="fs">
      <path fill="#fff" d="M97.35 77.306h2.777v2.777H97.35z"/>
    </clipPath>
    <clipPath id="ft">
      <path fill="#fff" d="M30.699 10.654h19.44v19.44h-19.44z"/>
    </clipPath>
    <clipPath id="fu">
      <path fill="#fff" d="M80.688 10.654h19.44v19.44h-19.44z"/>
    </clipPath>
    <clipPath id="fv">
      <path fill="#fff" d="M30.699 60.643h19.44v19.44h-19.44z"/>
    </clipPath>
  </defs>
</svg>
