<svg xmlns="http://www.w3.org/2000/svg" width="149" height="98" fill="none" viewBox="0 0 149 98">
  <path fill="#fff" d="M.864 96.967c-.315-.16-.333-.984-.333-13.009 0-9.752.055-12.901.222-13.062.352-.34 17.857-.304 19.154.035 2.26.573 3.76 1.79 4.779 3.848.555 1.127.574 1.288.574 3.418 0 2.129-.019 2.29-.574 3.417-.334.662-.89 1.521-1.26 1.915-.593.626-2.315 1.61-3.316 1.915-.296.071-.037.68 2.02 4.509 1.296 2.451 2.519 4.688 2.704 4.974.185.304.333.877.333 1.307v.751L22 96.95l-3.186-.053-2.52-4.617c-1.389-2.54-2.778-4.885-3.093-5.207-1.037-1.038-1.76-1.27-4.372-1.324-2.13-.054-2.352-.036-2.445.268-.055.18-.074 2.63-.055 5.476.037 2.827.018 5.207-.037 5.296-.167.215-5.058.394-5.428.18Zm17.264-17.25c.649-.322 1.297-1.091 1.297-1.538 0-.197-.278-.645-.63-1.02l-.63-.662-5.853-.054c-3.223-.036-5.854.018-5.872.09-.093 1.288-.111 2.898-.037 3.149.074.286.5.304 5.63.304 4.54 0 5.65-.054 6.095-.269Zm97.473 17.161c-.166-.126-1.945-3.31-3.927-7.104l-3.612-6.871-3.482 6.638c-1.927 3.65-3.613 6.818-3.761 7.05-.259.376-.352.394-3.316.394h-3.056v-.787c0-.805.593-1.986 10.522-20.721l2.352-4.438h1.556l2.816 5.422c1.537 2.97 2.871 5.493 2.945 5.583.074.107 1.241 2.308 2.612 4.92 1.352 2.613 2.945 5.62 3.538 6.693.759 1.396 1.074 2.165 1.074 2.648 0 .376-.055.68-.129.698-.093.018-1.427.036-2.983.054-1.963.018-2.945-.036-3.149-.18Zm-76.355-.304a13.147 13.147 0 0 1-8.596-7.981l-.574-1.539V70.77h5.557l.093 7.158c.093 6.943.111 7.193.519 8.178.518 1.252 1.778 2.916 2.686 3.596.389.269 1.24.752 1.945 1.074 1.056.483 1.463.555 2.63.555 3.705 0 7.15-3.06 7.78-6.872.093-.644.185-3.954.185-7.354 0-5.493.037-6.227.297-6.317.37-.143 4.779-.143 5.15 0 .259.09.296.93.296 7.57 0 6.835-.037 7.569-.37 8.947-1.075 4.294-3.946 7.461-8.244 9.018-1.408.519-1.63.555-4.723.608-2.927.054-3.372.018-4.631-.357ZM64.068 83.94c0-11.72.037-13.044.296-13.152.556-.197 17.783-.125 18.82.09 3.946.805 6.206 4.33 5.558 8.625-.26 1.771-.89 3.024-2.057 4.115-.889.86-2.426 1.736-3 1.736-.204 0-.352.054-.352.125 0 .143 3.278 6.442 4.371 8.392.63 1.128.815 1.647.815 2.291v.823h-3.056c-2.964 0-3.057-.018-3.316-.394-.148-.232-1.26-2.254-2.482-4.527-1.223-2.254-2.5-4.42-2.834-4.813-.334-.376-1.038-.877-1.575-1.127-.87-.376-1.167-.412-3.167-.376l-2.186.053-.093 5.547-.093 5.548-2.815.053-2.834.054V83.94Zm17.746-4.312c.852-.501 1.204-1.342.852-2.022-.148-.268-.537-.662-.87-.841-.557-.34-.909-.358-6.244-.322l-5.65.053L69.848 78c-.037.823-.018 1.61.037 1.753.074.18 1.204.233 5.706.233 5.297 0 5.65-.018 6.224-.358Zm50.051 16.999c-2.815-.984-4.797-3.274-5.353-6.191-.296-1.521-.278-19.254.018-19.54.149-.143 1.038-.215 2.742-.215s2.593.072 2.742.215c.166.16.222 2.415.222 9.036 0 9.538-.019 9.323 1 10.397.945 1.02.926 1.02 8.632 1.109l7.132.09v5.368l-8.058.035c-7.613.036-8.113.018-9.077-.304ZM5.699 65.42C2.679 64.4.9 62.342.216 59.104c-.26-1.163-.278-1.54-.093-1.915l.222-.483 2.723.054 2.723.053.334.877c.166.483.556 1.11.833 1.396 1 1.02 1.13 1.038 6.04 1.038h4.5l.741-.466c.89-.554 1.593-1.538 1.612-2.308.018-.752-.667-1.79-1.593-2.38l-.741-.483-6.131-.09c-5.817-.089-6.169-.107-7.002-.483-1.871-.823-3.205-2.254-3.853-4.097-.538-1.468-.52-4.51.018-5.887.76-1.969 2.593-3.597 4.65-4.134.76-.197 2.519-.25 7.78-.25 6.076 0 6.89.035 7.89.322 1.927.59 3.317 1.753 4.298 3.614.334.59.463 1.2.52 2.344l.073 1.54-.704.107c-.407.071-1.667.125-2.815.125h-2.094l-.333-.752c-.185-.43-.574-.966-.852-1.216l-.5-.448-5.298-.053c-4.927-.036-5.372-.018-5.965.286-.352.197-.796.59-.982.912-.333.537-.333.573 0 1.11.186.322.575.733.853.948.5.358.796.376 6.483.483 3.371.054 6.205.18 6.52.287 2.112.697 3.872 2.2 4.854 4.133l.704 1.36v2.702c0 2.666 0 2.684-.593 3.865-1.13 2.219-3.038 3.794-5.335 4.366-.87.215-2.26.269-6.947.269-5.63 0-5.872-.018-7.057-.43Zm24.136.287c-.185-.126-.222-2.846-.185-13.027l.056-12.866.722-.054c.556-.053.852.054 1.39.466 1.611 1.252 11.355 8.446 11.429 8.446.037 0 2.797-2.022 6.113-4.492 5.65-4.187 6.057-4.473 6.705-4.42l.686.054.055 12.92.037 12.937-.407.09c-.241.053-1.5.07-2.834.053l-2.408-.054-.093-7.533-.093-7.551-3.427 2.576c-3.315 2.47-3.464 2.56-4.334 2.56-.834.017-1-.072-2.5-1.2a170.97 170.97 0 0 0-3.261-2.451c-.908-.662-1.778-1.306-1.908-1.396-.222-.161-.24 1.038-.204 7.283.056 6.406.019 7.48-.204 7.623-.333.214-5.001.232-5.335.035Zm29.361.017c-.26-.232-.111-1.592.204-2.111.185-.286 2.111-3.919 4.297-8.052 2.168-4.134 4.928-9.359 6.132-11.631l2.186-4.116h1.519l2.37 4.474C85.909 63.148 86.5 64.31 86.445 65.044l-.055.715-2.871.054c-2.112.036-2.964-.018-3.186-.179-.278-.215-1.834-3.06-4.687-8.553-2-3.865-2.927-5.458-3.02-5.172-.24.698-7.15 13.528-7.409 13.725-.315.233-5.798.322-6.02.09Zm29.731-.017c-.185-.126-.222-2.863-.185-13.117l.055-12.955h19.45l1.223.573a6.907 6.907 0 0 1 3.279 3.239c.463.948.5 1.18.5 3.525 0 2.2-.056 2.612-.426 3.364-.778 1.646-2.871 3.382-4.539 3.775-.389.09-.481.18-.352.34.093.126.871 1.54 1.723 3.167.834 1.629 2.019 3.83 2.612 4.886.593 1.073 1.074 2.129 1.074 2.361 0 .985 0 .985-3.167.985-2.649 0-2.983-.036-3.242-.34-.167-.18-.833-1.325-1.5-2.541-3.927-7.301-3.964-7.355-5.354-8.035-.76-.375-1.24-.447-3-.5-1.464-.054-2.168-.018-2.353.143-.241.196-.278 1.073-.278 5.636 0 4.778-.037 5.44-.296 5.53-.426.16-4.946.125-5.224-.036Zm17.561-17.375c.259-.18.611-.555.778-.86.314-.5.314-.554 0-1.127-.686-1.199-.964-1.252-6.984-1.252-3.946 0-5.446.053-5.613.214-.296.287-.296 3.042 0 3.329.186.179 1.464.214 5.798.125 4.891-.107 5.613-.161 6.021-.43Zm20.061 17.41c-.185-.09-.241-2.308-.241-10.289 0-5.6-.018-10.2-.037-10.217-.037-.018-2.427-.09-5.335-.143l-5.279-.09v-5.368h27.045v5.368l-5.279.09-5.28.09-.092 10.288-.093 10.29-2.593.035c-1.427.018-2.705-.018-2.816-.054ZM36.19 36.432c-.427-.984-.353-2.022.184-2.523.241-.25.538-.447.649-.447.11 0-.334-.59-.964-1.289-1.5-1.664-2.26-2.72-2.963-4.169-.575-1.199-.852-2.88-.63-3.74.148-.572.982-1.002 1.963-1.002.408 0 .741-.018.741-.036 0-.035-.13-.447-.296-.948a25.251 25.251 0 0 1-.556-2.416c-.537-3.113-.296-3.757 1.464-3.9.926-.072 1.148-.018 2.241.572.89.483 1.223.59 1.223.394 0-.483.926-1.002 1.796-1.002.964 0 3.576.912 6.354 2.2 1.816.842 2.093 1.056 4.112 3.025 1.186 1.163 2.279 2.129 2.409 2.129.13.018 1.537.054 3.112.054 2.741.035 3.019.071 5.835.787 2.408.608 3.278.752 4.612.752 1.556 0 1.76-.054 3.15-.698 2.593-1.217 3.185-1.933 5.89-7.212 2.278-4.437 3.667-6.62 5.186-8.141l.76-.752-.334-.644c-.5-1.038-.333-3.382.297-4.312.593-.86 2.019-1.647 3.242-1.79.5-.071 1.037-.232 1.204-.376C87.5.43 89.075 0 90.353 0c1.297 0 2.279.286 3.205.913.26.196.76.34 1.111.34 1.464 0 3.372 1.377 3.853 2.791.297.859.148 2.845-.26 3.615l-.314.59.908 1.199c2.056 2.684 2.519 4.098 1.704 5.1-.537.644-1.334.733-3.316.393l-1.704-.304-.556.501c-.296.287-.778.949-1.056 1.503-.444.877-.5 1.181-.481 2.684 0 .93.11 2.148.24 2.684.13.537.556 2.273.945 3.848 1.112 4.455 1.371 6.263 1.241 8.714-.055 1.163-.166 2.201-.222 2.29-.055.108-.982.18-2.038.18h-1.926l.037-2.541c.037-2.649-.019-2.917-1-6.908-1.167-4.67-1.334-5.726-1.334-8.356 0-2.899.278-4.026 1.445-5.708.889-1.306 1.686-1.915 2.908-2.273l.982-.268-.778-.555c-.426-.286-1.37-.716-2.093-.948-1.204-.376-1.427-.394-2.612-.197-1.797.286-2.853.859-4.242 2.272-1.649 1.718-2.52 3.096-4.928 7.874-1.834 3.632-2.278 4.348-3.241 5.332-3.724 3.847-8.447 4.688-15.95 2.845-2.5-.608-2.834-.644-5.705-.662-3.038-.018-3.056-.018-3.982-.537-.5-.286-1.834-1.431-2.964-2.523-1.834-1.789-2.205-2.057-3.557-2.63l-1.537-.662v.43c0 .661-.186.983-.76 1.252-.648.34-1.778.34-2.39 0a3.484 3.484 0 0 0-.61-.268c-.149 0 .555 1.288 1.277 2.308.315.447.445.877.445 1.485 0 1.342-.741 1.861-2.5 1.718-.464-.036-.834-.018-.834.018 0 .25 2.241 2.666 3.278 3.543 2.168 1.807 2.094 1.718 2.094 2.791 0 1.074-.315 1.503-1.52 1.969-.462.196-.685.411-.74.697-.056.394-.111.412-2.242.466l-2.185.053-.26-.626ZM94.446 5.44c0-.358-.278-.448-1.556-.483-1.074-.036-1.26-.09-1.815-.609-.352-.322-.704-.59-.797-.59-.093 0-.444.268-.796.59-.556.52-.723.573-1.834.609-1.297.035-1.834.304-1.538.751.13.233.37.233 1.612.054 1.89-.286 4.168-.269 5.335.036.944.232 1.389.125 1.389-.358Z"/>
</svg>
