<svg width="403" height="272" viewBox="0 0 403 272" fill="none" xmlns="http://www.w3.org/2000/svg">
<path d="M2.9 270.95C2.05 270.5 2 268.2 2 234.6C2 207.35 2.15 198.55 2.6 198.1C3.55 197.15 50.8 197.25 54.3 198.2C60.4 199.8 64.45 203.2 67.2 208.95C68.7 212.1 68.75 212.55 68.75 218.5C68.75 224.45 68.7 224.9 67.2 228.05C66.3 229.9 64.8 232.3 63.8 233.4C62.2 235.15 57.55 237.9 54.85 238.75C54.05 238.95 54.75 240.65 60.3 251.35C63.8 258.2 67.1 264.45 67.6 265.25C68.1 266.1 68.5 267.7 68.5 268.9V271L59.95 270.9L51.35 270.75L44.55 257.85C40.8 250.75 37.05 244.2 36.2 243.3C33.4 240.4 31.45 239.75 24.4 239.6C18.65 239.45 18.05 239.5 17.8 240.35C17.65 240.85 17.6 247.7 17.65 255.65C17.75 263.55 17.7 270.2 17.55 270.45C17.1 271.05 3.9 271.55 2.9 270.95ZM49.5 222.75C51.25 221.85 53 219.7 53 218.45C53 217.9 52.25 216.65 51.3 215.6L49.6 213.75L33.8 213.6C25.1 213.5 18 213.65 17.95 213.85C17.7 217.45 17.65 221.95 17.85 222.65C18.05 223.45 19.2 223.5 33.05 223.5C45.3 223.5 48.3 223.35 49.5 222.75Z" fill="black"/>
<path d="M312.6 270.7C312.15 270.35 307.35 261.45 302 250.85L292.25 231.65L282.85 250.2C277.65 260.4 273.1 269.25 272.7 269.9C272 270.95 271.75 271 263.75 271H255.5V268.8C255.5 266.55 257.1 263.25 283.9 210.9L290.25 198.5H292.35H294.45L302.05 213.65C306.2 221.95 309.8 229 310 229.25C310.2 229.55 313.35 235.7 317.05 243C320.7 250.3 325 258.7 326.6 261.7C328.65 265.6 329.5 267.75 329.5 269.1C329.5 270.15 329.35 271 329.15 271.05C328.9 271.1 325.3 271.15 321.1 271.2C315.8 271.25 313.15 271.1 312.6 270.7Z" fill="black"/>
<path d="M106.5 269.85C95.85 266.65 87.15 258.25 83.3 247.55L81.75 243.25V220.5V197.75H89.25H96.75L97 217.75C97.25 237.15 97.3 237.85 98.4 240.6C99.8 244.1 103.2 248.75 105.65 250.65C106.7 251.4 109 252.75 110.9 253.65C113.75 255 114.85 255.2 118 255.2C128 255.2 137.3 246.65 139 236C139.25 234.2 139.5 224.95 139.5 215.45C139.5 200.1 139.6 198.05 140.3 197.8C141.3 197.4 153.2 197.4 154.2 197.8C154.9 198.05 155 200.4 155 218.95C155 238.05 154.9 240.1 154 243.95C151.1 255.95 143.35 264.8 131.75 269.15C127.95 270.6 127.35 270.7 119 270.85C111.1 271 109.9 270.9 106.5 269.85Z" fill="black"/>
<path d="M173.5 234.55C173.5 201.8 173.6 198.1 174.3 197.8C175.8 197.25 222.3 197.45 225.1 198.05C235.75 200.3 241.85 210.15 240.1 222.15C239.4 227.1 237.7 230.6 234.55 233.65C232.15 236.05 228 238.5 226.45 238.5C225.9 238.5 225.5 238.65 225.5 238.85C225.5 239.25 234.35 256.85 237.3 262.3C239 265.45 239.5 266.9 239.5 268.7V271H231.25C223.25 271 223 270.95 222.3 269.9C221.9 269.25 218.9 263.6 215.6 257.25C212.3 250.95 208.85 244.9 207.95 243.8C207.05 242.75 205.15 241.35 203.7 240.65C201.35 239.6 200.55 239.5 195.15 239.6L189.25 239.75L189 255.25L188.75 270.75L181.15 270.9L173.5 271.05V234.55ZM221.4 222.5C223.7 221.1 224.65 218.75 223.7 216.85C223.3 216.1 222.25 215 221.35 214.5C219.85 213.55 218.9 213.5 204.5 213.6L189.25 213.75L189.1 217.95C189 220.25 189.05 222.45 189.2 222.85C189.4 223.35 192.45 223.5 204.6 223.5C218.9 223.5 219.85 223.45 221.4 222.5Z" fill="black"/>
<path d="M356.5 270C348.9 267.25 343.55 260.85 342.05 252.7C341.25 248.45 341.3 198.9 342.1 198.1C342.5 197.7 344.9 197.5 349.5 197.5C354.1 197.5 356.5 197.7 356.9 198.1C357.35 198.55 357.5 204.85 357.5 223.35C357.5 250 357.45 249.4 360.2 252.4C362.75 255.25 362.7 255.25 383.5 255.5L402.75 255.75V263.25V270.75L381 270.85C360.45 270.95 359.1 270.9 356.5 270Z" fill="black"/>
<path d="M15.95 182.8C7.79999 179.95 2.99999 174.2 1.14999 165.15C0.449988 161.9 0.399988 160.85 0.899988 159.8L1.49999 158.45L8.84999 158.6L16.2 158.75L17.1 161.2C17.55 162.55 18.6 164.3 19.35 165.1C22.05 167.95 22.4 168 35.65 168H47.8L49.8 166.7C52.2 165.15 54.1 162.4 54.15 160.25C54.2 158.15 52.35 155.25 49.85 153.6L47.85 152.25L31.3 152C15.6 151.75 14.65 151.7 12.4 150.65C7.34999 148.35 3.74999 144.35 1.99999 139.2C0.549988 135.1 0.599988 126.6 2.04999 122.75C4.09999 117.25 9.04999 112.7 14.6 111.2C16.65 110.65 21.4 110.5 35.6 110.5C52 110.5 54.2 110.6 56.9 111.4C62.1 113.05 65.85 116.3 68.5 121.5C69.4 123.15 69.75 124.85 69.9 128.05L70.1 132.35L68.2 132.65C67.1 132.85 63.7 133 60.6 133H54.95L54.05 130.9C53.55 129.7 52.5 128.2 51.75 127.5L50.4 126.25L36.1 126.1C22.8 126 21.6 126.05 20 126.9C19.05 127.45 17.85 128.55 17.35 129.45C16.45 130.95 16.45 131.05 17.35 132.55C17.85 133.45 18.9 134.6 19.65 135.2C21 136.2 21.8 136.25 37.15 136.55C46.25 136.7 53.9 137.05 54.75 137.35C60.45 139.3 65.2 143.5 67.85 148.9L69.75 152.7V160.25C69.75 167.7 69.75 167.75 68.15 171.05C65.1 177.25 59.95 181.65 53.75 183.25C51.4 183.85 47.65 184 35 184C19.8 184 19.15 183.95 15.95 182.8Z" fill="black"/>
<path d="M81.1 183.6C80.6 183.25 80.5 175.65 80.6 147.2L80.75 111.25L82.7 111.1C84.2 110.95 85 111.25 86.45 112.4C90.8 115.9 117.1 136 117.3 136C117.4 136 124.85 130.35 133.8 123.45C149.05 111.75 150.15 110.95 151.9 111.1L153.75 111.25L153.9 147.35L154 183.5L152.9 183.75C152.25 183.9 148.85 183.95 145.25 183.9L138.75 183.75L138.5 162.7L138.25 141.6L129 148.8C120.05 155.7 119.65 155.95 117.3 155.95C115.05 156 114.6 155.75 110.55 152.6C108.2 150.7 104.25 147.65 101.75 145.75C99.3 143.9 96.95 142.1 96.6 141.85C96 141.4 95.95 144.75 96.05 162.2C96.2 180.1 96.1 183.1 95.5 183.5C94.6 184.1 82 184.15 81.1 183.6Z" fill="black"/>
<path d="M160.35 183.65C159.65 183 160.05 179.2 160.9 177.75C161.4 176.95 166.6 166.8 172.5 155.25C178.35 143.7 185.8 129.1 189.05 122.75L194.95 111.25H197H199.05L205.45 123.75C232.45 176.45 234.05 179.7 233.9 181.75L233.75 183.75L226 183.9C220.3 184 218 183.85 217.4 183.4C216.65 182.8 212.45 174.85 204.75 159.5C199.35 148.7 196.85 144.25 196.6 145.05C195.95 147 177.3 182.85 176.6 183.4C175.75 184.05 160.95 184.3 160.35 183.65Z" fill="black"/>
<path d="M240.6 183.6C240.1 183.25 240 175.6 240.1 146.95L240.25 110.75H266.5H292.75L296.05 112.35C300 114.3 303.05 117.45 304.9 121.4C306.15 124.05 306.25 124.7 306.25 131.25C306.25 137.4 306.1 138.55 305.1 140.65C303 145.25 297.35 150.1 292.85 151.2C291.8 151.45 291.55 151.7 291.9 152.15C292.15 152.5 294.25 156.45 296.55 161C298.8 165.55 302 171.7 303.6 174.65C305.2 177.65 306.5 180.6 306.5 181.25C306.5 184 306.5 184 297.95 184C290.8 184 289.9 183.9 289.2 183.05C288.75 182.55 286.95 179.35 285.15 175.95C274.55 155.55 274.45 155.4 270.7 153.5C268.65 152.45 267.35 152.25 262.6 152.1C258.65 151.95 256.75 152.05 256.25 152.5C255.6 153.05 255.5 155.5 255.5 168.25C255.5 181.6 255.4 183.45 254.7 183.7C253.55 184.15 241.35 184.05 240.6 183.6ZM288 135.05C288.7 134.55 289.65 133.5 290.1 132.65C290.95 131.25 290.95 131.1 290.1 129.5C288.25 126.15 287.5 126 271.25 126C260.6 126 256.55 126.15 256.1 126.6C255.3 127.4 255.3 135.1 256.1 135.9C256.6 136.4 260.05 136.5 271.75 136.25C284.95 135.95 286.9 135.8 288 135.05Z" fill="black"/>
<path d="M342.15 183.7C341.65 183.45 341.5 177.25 341.5 154.95C341.5 139.3 341.45 126.45 341.4 126.4C341.3 126.35 334.85 126.15 327 126L312.75 125.75V118.25V110.75H349.25H385.75V118.25V125.75L371.5 126L357.25 126.25L357 155L356.75 183.75L349.75 183.85C345.9 183.9 342.45 183.8 342.15 183.7Z" fill="black"/>
<path d="M98.25 101.8C97.1 99.05 97.3 96.15 98.75 94.75C99.4 94.05 100.2 93.5 100.5 93.5C100.8 93.5 99.6 91.85 97.9 89.9C93.85 85.25 91.8 82.3 89.9 78.25C88.35 74.9 87.6 70.2 88.2 67.8C88.6 66.2 90.85 65 93.5 65C94.6 65 95.5 64.95 95.5 64.9C95.5 64.8 95.15 63.65 94.7 62.25C94.3 60.9 93.6 57.85 93.2 55.5C91.75 46.8 92.4 45 97.15 44.6C99.65 44.4 100.25 44.55 103.2 46.2C105.6 47.55 106.5 47.85 106.5 47.3C106.5 45.95 109 44.5 111.35 44.5C113.95 44.5 121 47.05 128.5 50.65C133.4 53 134.15 53.6 139.6 59.1C142.8 62.35 145.75 65.05 146.1 65.05C146.45 65.1 150.25 65.2 154.5 65.2C161.9 65.3 162.65 65.4 170.25 67.4C176.75 69.1 179.1 69.5 182.7 69.5C186.9 69.5 187.45 69.35 191.2 67.55C198.2 64.15 199.8 62.15 207.1 47.4C213.25 35 217 28.9 221.1 24.65L223.15 22.55L222.25 20.75C220.9 17.85 221.35 11.3 223.05 8.7C224.65 6.3 228.5 4.1 231.8 3.7C233.15 3.5 234.6 3.05 235.05 2.65C236.75 1.2 241 0 244.45 0C247.95 0 250.6 0.8 253.1 2.55C253.8 3.1 255.15 3.5 256.1 3.5C260.05 3.5 265.2 7.35 266.5 11.3C267.3 13.7 266.9 19.25 265.8 21.4L264.95 23.05L267.4 26.4C272.95 33.9 274.2 37.85 272 40.65C270.55 42.45 268.4 42.7 263.05 41.75L258.45 40.9L256.95 42.3C256.15 43.1 254.85 44.95 254.1 46.5C252.9 48.95 252.75 49.8 252.8 54C252.8 56.6 253.1 60 253.45 61.5C253.8 63 254.95 67.85 256 72.25C259 84.7 259.7 89.75 259.35 96.6C259.2 99.85 258.9 102.75 258.75 103C258.6 103.3 256.1 103.5 253.25 103.5H248.05L248.15 96.4C248.25 89 248.1 88.25 245.45 77.1C242.3 64.05 241.85 61.1 241.85 53.75C241.85 45.65 242.6 42.5 245.75 37.8C248.15 34.15 250.3 32.45 253.6 31.45L256.25 30.7L254.15 29.15C253 28.35 250.45 27.15 248.5 26.5C245.25 25.45 244.65 25.4 241.45 25.95C236.6 26.75 233.75 28.35 230 32.3C225.55 37.1 223.2 40.95 216.7 54.3C211.75 64.45 210.55 66.45 207.95 69.2C197.9 79.95 185.15 82.3 164.9 77.15C158.15 75.45 157.25 75.35 149.5 75.3C141.3 75.25 141.25 75.25 138.75 73.8C137.4 73 133.8 69.8 130.75 66.75C125.8 61.75 124.8 61 121.15 59.4L117 57.55V58.75C117 60.6 116.5 61.5 114.95 62.25C113.2 63.2 110.15 63.2 108.5 62.25C107.8 61.85 107.05 61.55 106.85 61.5C106.45 61.5 108.35 65.1 110.3 67.95C111.15 69.2 111.5 70.4 111.5 72.1C111.5 75.85 109.5 77.3 104.75 76.9C103.5 76.8 102.5 76.85 102.5 76.95C102.5 77.65 108.55 84.4 111.35 86.85C117.2 91.9 117 91.65 117 94.65C117 97.65 116.15 98.85 112.9 100.15C111.65 100.7 111.05 101.3 110.9 102.1C110.75 103.2 110.6 103.25 104.85 103.4L98.95 103.55L98.25 101.8ZM255.5 15.2C255.5 14.2 254.75 13.95 251.3 13.85C248.4 13.75 247.9 13.6 246.4 12.15C245.45 11.25 244.5 10.5 244.25 10.5C244 10.5 243.05 11.25 242.1 12.15C240.6 13.6 240.15 13.75 237.15 13.85C233.65 13.95 232.2 14.7 233 15.95C233.35 16.6 234 16.6 237.35 16.1C242.45 15.3 248.6 15.35 251.75 16.2C254.3 16.85 255.5 16.55 255.5 15.2Z" fill="black"/>
</svg>
