<?xml version="1.0" encoding="UTF-8"?>
<!DOCTYPE svg PUBLIC "-//W3C//DTD SVG 1.1//EN" "http://www.w3.org/Graphics/SVG/1.1/DTD/svg11.dtd">
<svg xmlns="http://www.w3.org/2000/svg" version="1.1" width="320px" height="320px" style="shape-rendering:geometricPrecision; text-rendering:geometricPrecision; image-rendering:optimizeQuality; fill-rule:evenodd; clip-rule:evenodd" xmlns:xlink="http://www.w3.org/1999/xlink">
<g><path style="opacity:0.799" fill="#fefefe" d="M 90.5,45.5 C 94.2194,45.0025 97.5527,45.8358 100.5,48C 106.344,54.6762 112.344,61.1762 118.5,67.5C 142.533,51.8274 168.533,47.3274 196.5,54C 209.947,59.9309 221.613,68.4309 231.5,79.5C 235.66,84.4485 236.327,89.7818 233.5,95.5C 228.397,100.776 222.397,104.61 215.5,107C 235.355,107.203 253.355,101.537 269.5,90C 270.5,89.3333 271.5,89.3333 272.5,90C 252.084,117.118 225.417,125.785 192.5,116C 178.5,110.333 164.5,104.667 150.5,99C 126.114,94.278 103.447,98.4447 82.5,111.5C 82.1667,111 81.8333,110.5 81.5,110C 102.655,86.6199 128.655,78.9532 159.5,87C 170.616,91.0388 181.283,96.0388 191.5,102C 198.685,104.253 206.019,105.753 213.5,106.5C 213.187,103.753 213.52,101.086 214.5,98.5C 219.714,96.5953 224.047,93.5953 227.5,89.5C 224.009,82.8437 219.343,77.177 213.5,72.5C 198.758,61.0943 182.092,56.9276 163.5,60C 157.449,61.1194 151.449,62.4528 145.5,64C 136.159,68.0868 126.993,72.5868 118,77.5C 116.775,77.1377 115.609,76.6377 114.5,76C 108.84,69.1736 102.84,62.6736 96.5,56.5C 94.6558,65.4085 93.6558,74.4085 93.5,83.5C 90.5,83.5 87.5,83.5 84.5,83.5C 85.9911,70.7423 87.9911,58.0756 90.5,45.5 Z"/></g>
<g><path style="opacity:0.752" fill="#fefefe" d="M 200.5,73.5 C 204.607,72.8496 208.107,73.8496 211,76.5C 211.465,85.3706 207.799,87.704 200,83.5C 199.253,80.0764 199.42,76.7431 200.5,73.5 Z"/></g>
<g><path style="opacity:0.781" fill="#fefefe" d="M 118.5,110.5 C 133.058,109.415 146.724,112.248 159.5,119C 161.495,120.328 163.161,121.995 164.5,124C 164.167,124.5 163.833,125 163.5,125.5C 148.476,121.045 133.143,119.545 117.5,121C 106.988,124.512 96.8217,128.678 87,133.5C 86.5,133.167 86,132.833 85.5,132.5C 93.4575,120.371 104.458,113.037 118.5,110.5 Z"/></g>
<g><path style="opacity:0.851" fill="#fefefe" d="M -0.5,184.5 C -0.5,182.167 -0.5,179.833 -0.5,177.5C 3.5,177.5 7.5,177.5 11.5,177.5C 10.9738,180.808 12.3072,182.974 15.5,184C 23.1667,184.667 30.8333,184.667 38.5,184C 43.2565,181.661 44.4231,178.161 42,173.5C 40.8289,172.107 39.3289,171.273 37.5,171C 27.4412,170.896 17.4412,170.229 7.5,169C 3.92315,166.926 1.25648,164.093 -0.5,160.5C -0.5,155.833 -0.5,151.167 -0.5,146.5C 2.02855,142.811 5.36188,139.978 9.5,138C 21.1667,137.333 32.8333,137.333 44.5,138C 51.5371,141.222 55.2037,146.722 55.5,154.5C 51.4454,154.824 47.4454,154.491 43.5,153.5C 42.8333,152.5 42.1667,151.5 41.5,150.5C 32.1845,149.335 22.8511,149.168 13.5,150C 9.5,152.667 9.5,155.333 13.5,158C 23.8824,158.13 34.2158,158.796 44.5,160C 56.5459,168.207 58.5459,178.373 50.5,190.5C 48.6414,192.192 46.6414,193.692 44.5,195C 34.2179,196.536 23.8845,196.87 13.5,196C 6.85041,194.512 2.18375,190.678 -0.5,184.5 Z"/></g>
<g><path style="opacity:0.842" fill="#fefefe" d="M 61.5,137.5 C 62.552,137.351 63.552,137.517 64.5,138C 73.358,145.025 82.358,151.859 91.5,158.5C 100.642,151.859 109.642,145.025 118.5,138C 119.448,137.517 120.448,137.351 121.5,137.5C 121.5,157.167 121.5,176.833 121.5,196.5C 117.5,196.5 113.5,196.5 109.5,196.5C 109.667,184.495 109.5,172.495 109,160.5C 103.61,165.443 97.7769,169.777 91.5,173.5C 85.2231,169.777 79.3898,165.443 74,160.5C 73.5001,172.495 73.3335,184.495 73.5,196.5C 69.5,196.5 65.5,196.5 61.5,196.5C 61.5,176.833 61.5,157.167 61.5,137.5 Z"/></g>
<g><path style="opacity:0.835" fill="#fefefe" d="M 154.5,137.5 C 155.376,137.369 156.043,137.702 156.5,138.5C 166.422,157.344 176.089,176.344 185.5,195.5C 181.205,196.661 176.871,196.828 172.5,196C 166.525,185.215 160.692,174.381 155,163.5C 149.323,174.35 143.49,185.183 137.5,196C 133.129,196.828 128.795,196.661 124.5,195.5C 134.69,176.261 144.69,156.927 154.5,137.5 Z"/></g>
<g><path style="opacity:0.862" fill="#fefefe" d="M 188.5,137.5 C 202.837,137.333 217.171,137.5 231.5,138C 242.861,143.74 245.528,152.24 239.5,163.5C 236.978,166.927 233.645,169.094 229.5,170C 233.543,178.615 237.876,187.115 242.5,195.5C 238.205,196.661 233.871,196.828 229.5,196C 225.362,189.558 221.862,182.724 219,175.5C 213.976,170.215 207.81,168.215 200.5,169.5C 200.5,178.5 200.5,187.5 200.5,196.5C 196.5,196.5 192.5,196.5 188.5,196.5C 188.5,176.833 188.5,157.167 188.5,137.5 Z M 200.5,149.5 C 209.839,149.334 219.173,149.5 228.5,150C 231.462,153.488 230.795,156.155 226.5,158C 217.84,158.5 209.173,158.666 200.5,158.5C 200.5,155.5 200.5,152.5 200.5,149.5 Z"/></g>
<g><path style="opacity:0.847" fill="#fefefe" d="M 246.5,137.5 C 266.5,137.5 286.5,137.5 306.5,137.5C 306.5,141.5 306.5,145.5 306.5,149.5C 298.5,149.5 290.5,149.5 282.5,149.5C 282.5,165.167 282.5,180.833 282.5,196.5C 278.5,196.5 274.5,196.5 270.5,196.5C 270.5,180.833 270.5,165.167 270.5,149.5C 262.5,149.5 254.5,149.5 246.5,149.5C 246.5,145.5 246.5,141.5 246.5,137.5 Z"/></g>
<g><path style="opacity:0.855" fill="#fefefe" d="M 0.5,201.5 C 14.1707,201.333 27.8374,201.5 41.5,202C 53.2914,206.237 57.1248,214.403 53,226.5C 49.7119,230.132 46.2119,233.299 42.5,236C 46.232,244.402 50.232,252.569 54.5,260.5C 50.2047,261.661 45.8713,261.828 41.5,261C 37.0746,253.23 32.7413,245.397 28.5,237.5C 23.5322,234.931 18.1988,233.931 12.5,234.5C 12.5,243.5 12.5,252.5 12.5,261.5C 8.5,261.5 4.5,261.5 0.5,261.5C 0.5,241.5 0.5,221.5 0.5,201.5 Z M 12.5,213.5 C 21.5062,213.334 30.5062,213.5 39.5,214C 43.62,217.445 43.2866,220.445 38.5,223C 29.8397,223.5 21.1731,223.666 12.5,223.5C 12.5,220.167 12.5,216.833 12.5,213.5 Z"/></g>
<g><path style="opacity:0.837" fill="#fefefe" d="M 61.5,201.5 C 65.5,201.5 69.5,201.5 73.5,201.5C 73.3335,213.171 73.5001,224.838 74,236.5C 79.3092,247.824 87.8092,251.324 99.5,247C 102.667,245.167 105.167,242.667 107,239.5C 108.42,226.894 108.92,214.228 108.5,201.5C 112.5,201.5 116.5,201.5 120.5,201.5C 120.906,215.218 120.406,228.885 119,242.5C 113.487,254.682 103.987,261.015 90.5,261.5C 76.198,260.362 66.698,253.029 62,239.5C 61.5001,226.838 61.3334,214.171 61.5,201.5 Z"/></g>
<g><path style="opacity:0.854" fill="#fefefe" d="M 135.5,201.5 C 148.837,201.333 162.171,201.5 175.5,202C 186.521,205.533 190.688,213.033 188,224.5C 185.584,229.751 181.751,233.418 176.5,235.5C 181.066,243.845 185.066,252.512 188.5,261.5C 184.154,261.666 179.821,261.499 175.5,261C 171.379,252.43 166.712,244.097 161.5,236C 156.58,234.75 151.58,234.25 146.5,234.5C 146.5,243.5 146.5,252.5 146.5,261.5C 142.5,261.5 138.5,261.5 134.5,261.5C 134.179,241.424 134.513,221.424 135.5,201.5 Z M 146.5,213.5 C 155.506,213.334 164.506,213.5 173.5,214C 177.661,217.513 177.327,220.513 172.5,223C 163.84,223.5 155.173,223.666 146.5,223.5C 146.5,220.167 146.5,216.833 146.5,213.5 Z"/></g>
<g><path style="opacity:0.824" fill="#fefefe" d="M 228.5,201.5 C 229.376,201.369 230.043,201.702 230.5,202.5C 234.998,212.811 240.164,222.811 246,232.5C 250.999,242.026 255.499,251.692 259.5,261.5C 254.833,261.5 250.167,261.5 245.5,261.5C 240.61,249.804 235.11,238.471 229,227.5C 223.263,238.397 217.763,249.397 212.5,260.5C 208.217,261.492 203.884,261.826 199.5,261.5C 199.343,260.127 199.51,258.793 200,257.5C 209.784,238.931 219.284,220.265 228.5,201.5 Z"/></g>
<g><path style="opacity:0.865" fill="#fefefe" d="M 319.5,250.5 C 319.5,254.167 319.5,257.833 319.5,261.5C 307.162,261.667 294.829,261.5 282.5,261C 276.939,258.438 273.106,254.272 271,248.5C 270.5,233.17 270.333,217.837 270.5,202.5C 274.5,202.5 278.5,202.5 282.5,202.5C 282.333,216.837 282.5,231.171 283,245.5C 284.934,248.688 287.768,250.188 291.5,250C 300.827,250.5 310.161,250.666 319.5,250.5 Z"/></g>
</svg>
